<?xml version="1.0" encoding="UTF-8" standalone="no"?>
<!DOCTYPE svg PUBLIC "-//W3C//DTD SVG 1.1//EN" "http://www.w3.org/Graphics/SVG/1.1/DTD/svg11.dtd">
<svg width="100%" height="100%" viewBox="0 0 335 393" version="1.1" xmlns="http://www.w3.org/2000/svg" xmlns:xlink="http://www.w3.org/1999/xlink" xml:space="preserve" xmlns:serif="http://www.serif.com/" style="fill-rule:evenodd;clip-rule:evenodd;stroke-linejoin:round;stroke-miterlimit:2;">
    <g transform="matrix(1,0,0,1,-1064.884058,-715.930693)">
        <g transform="matrix(2.423828,0,0,2.423828,0,0)">
            <path d="M503.507,399.466C502.853,399.631 501.932,399.036 489.708,406.788C483.877,410.486 483.046,411.761 480.543,413.549C478.293,415.156 473.494,420.563 471.493,422.493C468.175,425.692 468.453,425.928 465.291,429.305C462.51,432.275 463.374,433.043 460.383,435.336C456.579,438.252 451.526,448.234 449.365,450.351C447.835,451.85 447.789,451.779 446.399,453.417C443.351,457.01 438.403,459.267 439.494,455.498C439.608,455.105 440.47,452.757 440.557,452.52C441.496,449.962 442.678,447.761 441.475,446.527C441.393,446.443 441.261,446.673 440.257,445.713C439.099,444.606 439.75,444.206 445.271,436.345C448.161,432.23 448.143,432.226 448.633,431.6C450.324,429.44 454.892,421.734 458.751,416.684C460.03,415.01 461.15,412.994 464.854,407.745C468.403,402.714 469.091,400.86 471.678,397.639C473.319,395.597 473.415,395.183 475.223,392.343C476.073,391.007 476.413,391.12 476.457,389.519C476.464,389.249 476.64,388.883 476.433,388.711C476.081,388.418 474.592,389.255 474.447,389.337C474.07,389.549 471.927,390.755 469.506,391.524C467.512,392.158 467.682,391.078 467.387,390.558C467.144,390.128 466.991,389.482 466.512,389.363C466.269,389.303 466.308,389.566 463.46,390.084C462.562,390.248 461.69,390.441 461.072,389.834C459.655,388.443 463.059,387.143 464.289,386.226C466.144,384.842 479.698,373.845 482.366,371.355C482.53,371.202 490.595,363.136 491.344,362.352C496.846,356.592 499.938,351.669 505.623,345.614C509.866,341.095 517.375,329.664 518.564,327.539C521.419,322.44 521.213,322.347 524.108,317.269C527.705,310.962 526.979,310.511 531.632,304.6C532.86,303.04 538.826,294.119 548.497,295.521C552.733,296.135 553.522,296.09 559.532,299.449C561.619,300.615 564.15,303.268 564.641,304.44C565.562,306.636 565.415,309.082 565.39,309.49C565.252,311.786 565.875,311.598 566.582,312.443C566.748,312.641 566.814,312.909 566.972,313.113C568.149,314.631 568.365,314.561 568.665,316.457C568.711,316.749 569.149,319.518 568.299,320.134C568.152,320.241 568.096,320.14 566.323,321.257C564.669,322.3 561.645,321.923 560.725,322.82C560.65,322.893 560.703,322.907 559.968,323.888C557.255,327.508 557.268,329.521 556.879,342.514C556.792,345.411 556.98,348.697 554.775,356.582C554.523,357.483 554.478,357.455 554.016,358.262C552.962,360.107 553.786,361.315 552.308,363.362C549.278,367.559 549.795,369.582 544.434,375.441C543.086,376.914 540.43,380.869 534.329,384.177C533.836,384.444 529.556,385.812 528.962,388.716C528.383,391.546 528.063,396.499 527.541,398.509C527.032,400.465 527.307,400.484 527.391,402.493C527.519,405.572 528.509,405.149 531.304,407.738C536.275,412.341 536.535,413.982 537.84,415.191C541.928,418.98 546.011,417.243 551.349,419.801C555.799,421.933 556.46,419.89 560.552,419.815C568.414,419.671 571.13,419.295 574.272,422.707C576.881,425.54 577.751,429.652 577.041,432.382C576.375,434.942 574.526,437.632 572.579,438.612C571.402,439.204 566.169,441.837 556.504,442.22C551.734,442.409 548.889,440.048 543.558,441.778C539.079,443.231 538.677,441.324 534.358,443.202C528.704,445.661 528.359,445.68 526.373,444.795C524.803,444.095 524.242,442.535 522.409,441.622C520.494,440.669 520.605,440.353 518.496,440.118C518.338,440.101 517.199,440.166 515.435,439.743C509.713,438.369 507.542,440.146 502.5,439.499C494.235,438.437 494.226,438.563 490.533,438.681C483.772,438.897 485.558,432.946 485.858,430.55C486.706,423.765 487.66,422.86 490.534,421.627C494.173,420.066 497.295,421.592 501.509,421.286C502.886,421.186 502.87,421.21 504.255,421.133C504.175,421.97 504.095,422.808 504.015,423.646C500.215,423.305 500.194,424.224 499.635,424.723C499.162,424.529 498.909,423.96 498.435,423.765C498.094,423.625 497.691,423.842 497.328,423.775C497.046,423.723 496.831,423.456 496.547,423.416C496.203,423.369 495.793,423.321 495.512,423.524C495.203,423.746 495.296,424.315 494.987,424.537C494.772,426.413 494.851,426.412 494.567,427.54C494.236,428.861 493.746,428.451 493.514,428.708C493.369,428.505 492.621,428.812 492.618,427.456C492.618,427.376 492.618,427.287 492.713,426.463C492.957,424.338 493.628,423.629 493.513,423.458C493.308,423.152 492.782,423.31 492.414,423.337C490.448,423.481 490.369,427.957 489.767,428.678C489.592,428.887 489.387,429.07 489.212,429.28C489.048,429.486 488.748,429.378 488.328,430.394C487.625,432.098 487.819,433.221 487.861,433.466C487.889,433.626 488.21,433.513 488.321,433.633C488.694,434.036 488.944,434.538 489.265,434.983C490.391,436.548 490.651,436.317 492.583,436.229C500.922,435.772 500.873,436.765 505.518,437.027C509.629,437.26 509.704,436.03 518.413,437.729C520.168,438.124 520.163,438.107 520.601,438.244C521.995,438.679 525.373,440.332 525.505,440.49C525.686,440.704 525.617,441.046 525.747,441.293C525.869,441.526 527.145,443.961 528.356,443.299C528.654,443.136 529.043,442.88 529.036,442.541C529.027,442.165 528.327,442.046 528.319,441.67C528.192,441.176 527.526,440.942 527.399,440.448C527.317,440.128 527.764,439.858 527.768,439.527C527.772,439.151 527.694,439.187 526.724,437.409C526.573,437.132 526.443,436.842 526.34,436.545C525.491,434.104 525.695,434.061 525.938,431.492C526.247,430.543 526.555,429.594 526.864,428.645C527.247,427.789 527.043,427.719 528.32,425.391C529.268,423.664 529.394,423.742 529.397,423.574C529.41,422.956 527.621,422.872 527.456,422.865C525.659,422.781 525.673,422.895 525.518,422.883C523.944,422.762 523.911,422.02 522.468,421.637C517.133,420.219 513.799,423.278 511.555,424.576C508.863,426.133 507.702,427.932 506.968,428.774C506.29,427.738 505.776,428.283 505.089,427.234C505.054,427.179 504.959,427.034 505.506,426.54C505.835,426.242 506.306,426.133 506.636,425.835C506.876,425.564 506.973,425.707 507.214,425.435C507.565,425.038 507.421,424.96 507.77,424.553C508.474,423.732 508.547,423.844 509.455,423.292C509.871,423.038 511.701,421.788 511.709,421.766C511.907,421.255 511.302,420.647 511.5,420.136L512.808,419.359C513.163,419.526 513.174,420.124 513.529,420.291C513.746,420.393 516.924,419.453 517.142,419.194C517.279,419.031 517.282,418.091 517.156,417.945C517.069,417.845 516.982,417.989 515.747,417.086C514.458,416.142 513.805,416.628 513.523,416.595C513.322,416.603 511.018,416.692 511.018,416.692C510.635,416.428 510.811,410.67 507.886,404.311C507.665,403.832 507.255,401.963 504.82,400.031C504.471,399.754 504.426,399.734 504.386,399.717C503.962,399.535 503.94,399.652 503.507,399.466Z" style="fill:rgb(50,50,106);"/>
        </g>
        <g transform="matrix(2.423828,0,0,2.423828,0,0)">
            <path d="M562.429,309.449C561.76,309.486 555.948,309.133 552.727,313.643C551.034,316.013 551.951,320.474 556.454,321.641C556.749,321.718 557.084,321.677 557.348,321.83C557.546,321.944 557.59,322.22 557.745,322.387C558.162,322.837 558.382,322.847 558.164,323.065C558.045,323.183 557.163,323.253 556.416,324.43C555.663,325.615 555.222,326.989 554.904,327.702C553.323,331.238 554.233,331.45 553.742,333.557C553.67,333.869 553.544,334.168 553.412,334.459C552.92,335.541 552.849,335.503 552.813,335.6C552.464,336.539 552.625,336.572 552.276,337.51C552.197,337.862 551.969,338.168 551.889,338.519C551.499,340.247 552.363,339.978 553.917,341.429L553.956,342.558C551.798,343.572 551.592,343.39 550.284,345.397C550.195,345.533 550.077,345.649 549.984,345.783C548.057,348.594 550.317,348.199 550.483,348.107C551.966,347.278 551.068,346.434 552.474,345.5C552.889,345.225 553.553,345.777 553.967,345.502C552.801,350.364 551.873,352.335 549.01,356.377C547.983,357.667 548.022,357.672 546.892,358.868C546.144,359.66 543.922,362.702 543.911,362.735C543.724,363.341 543.81,363.515 543.84,363.575C544.32,364.539 544.673,364.266 545.157,365.238C543.85,366.416 543.755,366.24 542.617,366.685C541.639,367.068 541.693,367.481 541.089,368.026C539.961,369.045 540.033,369.09 539.263,370.382C537.858,372.736 534.53,374.208 532.17,376.177C530.465,377.599 530.79,378.174 530.508,378.51C528.656,380.712 524.958,379.743 522.196,382.09C518.806,384.97 518.788,384.959 517.585,386.563C514.957,390.068 514.131,389.032 510.456,391.437C510.314,391.531 506.829,393.64 506.754,393.741C506.678,393.842 506.139,394.565 506.692,395.318C506.747,395.394 508.552,396.348 510.53,396.087C511.582,395.948 511.918,395.658 512.201,396.678C512.262,396.896 511.411,398.302 511.33,398.437C510.519,399.778 510.318,400.187 510.3,400.203C508.415,401.946 506.779,396.841 503.345,397.089C503.024,397.112 502.723,397.273 502.403,397.297C499.474,398.385 499.471,398.335 498.61,398.768C490.788,402.701 491.053,403.861 487.514,404.598C486.121,404.888 486.073,405.249 485.266,406.381C484.375,407.628 484.319,407.565 481.277,410.004C478.909,411.902 478.536,411.652 476.463,412.474C476.431,412.177 476.731,411.906 476.699,411.609C476.653,411.178 476.238,410.826 476.24,410.393C476.241,410.21 476.332,410.262 477.551,408.526C477.97,408.719 478.049,409.371 478.469,409.563C478.631,409.637 478.938,409.777 480.36,408.397C483.913,404.95 483.374,404.482 487.199,400.276C488.41,398.944 487.96,398.653 489.101,397.275C490.58,395.49 489.695,394.608 489.702,394.387C489.228,393.732 488.754,393.078 488.28,392.424C489.563,391.004 489.54,391.01 489.821,390.742C492.352,388.33 493.635,388.107 494.88,386.976C500.769,381.63 504.223,381.912 507.788,378.839C510.645,376.376 511.354,377.523 515.405,375.28C517.275,374.244 517.168,373.819 518.686,372.804C518.921,372.648 519.191,372.547 519.423,372.386C520.966,371.312 523.311,368.632 525.278,367.194C526.795,366.085 526.212,365.184 527.814,363.919C529.458,362.621 528.898,362.213 529.922,360.812C531.031,359.296 532.22,359.59 533.038,354.458C533.813,349.59 537.006,347.443 538.52,345.515C540.606,342.858 539.677,341.979 539.302,340.547C539.229,340.268 539.238,339.965 539.12,339.703C539.067,339.585 538.672,338.705 537.667,339C536.859,339.237 535.388,343.064 535.307,343.166C535.097,343.432 535.067,343.391 533.456,344.425C533.115,344.426 532.79,344.252 532.449,344.253C530.805,344.256 530.879,344.616 530.048,346.047C527.85,349.598 523.89,353.735 522.547,355.54C521.134,357.438 518.754,358.505 516.945,360.834C514.95,363.399 515.222,363.688 513.549,364.595C509.324,366.887 509.827,368.462 509.188,369.19C508.98,369.427 506.655,371.074 506.361,371.245C505.899,371.513 505.893,371.496 500.495,374.422C500.551,373.791 500.607,373.16 500.664,372.529C501.46,371.864 501.407,371.838 502.252,371.201C506.982,367.641 506.257,366.84 509.467,364.443C512.873,361.899 512.68,361.704 515.451,358.473C516.903,356.673 516.934,356.71 517.019,356.529C517.117,356.319 517.144,356.021 517.008,355.834C516.966,355.777 516.054,355.71 515.588,355.942C515.21,356.13 514.929,356.481 514.551,356.669C513.781,357.441 513.75,357.391 513.028,358.196C512.955,358.278 512.951,358.27 512.094,359.196C511.652,359.674 511.657,359.652 511.208,360.144C508.088,363.568 507.574,363.024 504.455,366.435C501.003,370.211 498.001,372.025 494.314,375.295C493.108,376.364 488.959,379.761 486.493,380.104C485.576,380.232 485.491,379.648 485.385,379.599C485.503,379.459 486.858,377.853 486.858,377.853C487.223,377.577 487.29,377.694 491.549,374.574C493.439,373.189 496.231,370.982 496.634,370.664C502.543,365.994 502.124,365.552 503.943,363.782C504.245,363.487 505.961,362.289 508.605,359.617C511.361,356.831 511.351,356.825 511.597,356.589C511.682,356.506 512.662,355.557 512.662,355.557C512.877,355.245 513.217,354.974 513.278,354.6C513.311,354.396 513.001,354.289 512.898,354.11C512.779,353.903 512.763,353.64 512.615,353.452C512.365,353.134 511.979,352.941 511.73,352.623C511.801,352.214 512.15,351.887 512.222,351.478C512.265,351.229 512.108,350.631 512.089,350.559C512.089,350.559 510.355,349.406 510.204,349.305C511.904,347.453 511.69,347.304 513.319,345.378C519.597,337.955 523.201,327.543 525.451,323.466C525.903,322.647 526.083,322.838 527.305,322.231C528.908,321.433 528.815,319.754 528.801,319.506C528.783,319.168 528.612,318.85 528.589,318.512C528.509,317.337 528.749,317.396 529.359,316.399C530.456,314.607 531.11,315.327 531.898,314.907C532.924,314.36 534.391,311.849 534.564,311.554C535.637,309.718 537.208,308.535 537.619,307.573C537.91,306.892 537.596,304.744 542.434,302.38C547.063,300.118 548.853,301.121 550.513,301.407C555.19,302.214 555.32,301.512 557.546,302.391C561.564,303.977 562.211,306.057 562.362,306.542C563.059,308.785 562.459,309.138 562.429,309.449Z" style="fill:rgb(235,235,235);"/>
        </g>
        <g transform="matrix(2.423828,0,0,2.423828,0,0)">
            <path d="M504.015,423.646C503.693,424.606 500.328,432.182 504.527,431.727C505.392,431.634 505.352,431.501 505.919,430.834C506.608,430.024 506.462,429.957 506.968,428.774C507.702,427.932 508.863,426.133 511.555,424.576C513.799,423.278 517.133,420.219 522.468,421.637C523.911,422.02 523.944,422.762 525.518,422.883C525.673,422.895 525.659,422.781 527.456,422.865C527.621,422.872 529.41,422.956 529.397,423.574C529.394,423.742 529.268,423.664 528.32,425.391C527.043,427.719 527.247,427.789 526.864,428.645C526.603,428.286 526.447,427.859 526.186,427.5C525.255,426.216 524.679,426.918 524.311,428.449C524.272,428.614 523.922,430.074 524.401,430.569C524.816,430.999 525.523,431.062 525.938,431.492C525.695,434.061 525.491,434.104 526.34,436.545C526.443,436.842 526.573,437.132 526.724,437.409C527.694,439.187 527.772,439.151 527.768,439.527C527.764,439.858 527.317,440.128 527.399,440.448C527.526,440.942 528.192,441.176 528.319,441.67C528.327,442.046 529.027,442.165 529.036,442.541C529.043,442.88 528.654,443.136 528.356,443.299C527.145,443.961 525.869,441.526 525.747,441.293C525.617,441.046 525.686,440.704 525.505,440.49C525.373,440.332 521.995,438.679 520.601,438.244C520.163,438.107 520.168,438.124 518.413,437.729C509.704,436.03 509.629,437.26 505.518,437.027C500.873,436.765 500.922,435.772 492.583,436.229C492.723,435.878 492.53,435.855 492.671,435.5C492.891,434.946 493.021,435.043 493.261,434.521C493.411,434.197 493.523,433.852 493.591,433.502C493.859,432.121 493.245,432.266 493.134,431.87C493.158,431.348 492.411,430.988 492.435,430.466C492.455,430.046 493.025,429.858 493.244,429.5C493.39,429.262 493.368,428.946 493.514,428.708C493.746,428.451 494.236,428.861 494.567,427.54C494.851,426.412 494.772,426.413 494.987,424.537C495.072,424.565 495.078,424.305 495.163,424.333C495.317,424.384 496.83,424.883 496.988,425.198C497.212,425.643 496.356,426.012 496.252,426.5C495.814,428.541 498.364,426.623 498.508,426.514C499.557,425.726 499.547,424.926 499.635,424.723C500.194,424.224 500.215,423.305 504.015,423.646Z" style="fill:rgb(234,234,235);"/>
        </g>
        <g transform="matrix(2.423828,0,0,2.423828,0,0)">
            <path d="M550.49,422.283C554.799,423.378 555.191,423.201 558.495,422.444C559.972,422.106 560.808,422.069 560.322,423.5C560.233,423.764 560.15,423.721 558.813,426.637C557.488,429.529 556.832,437.311 556.836,437.544C556.861,439.087 557.062,439.642 555.512,439.698C552.363,439.812 552.442,438.537 544.521,438.903C532.538,439.457 532.64,443.206 531.12,441.831C531.12,441.831 530.589,440.669 530.543,440.568C532.171,439.884 532.835,440.215 532.833,438.44C532.832,437.562 531.326,434.879 533.4,430.446C534.18,428.78 534.404,428.952 538.746,424.711C539.827,423.656 539.954,423.54 545.528,423.844C547.091,423.929 548.015,424.111 548.401,424.019C548.799,423.923 549.135,423.639 549.533,423.544L550.49,422.283Z" style="fill:rgb(235,235,236);"/>
        </g>
        <g transform="matrix(2.423828,0,0,2.423828,0,0)">
            <path d="M488.28,392.424C488.754,393.078 489.228,393.732 489.702,394.387C487.224,395.772 487.143,395.626 486.962,395.794C486.717,396.02 485.46,398.236 485.337,398.453C483.65,401.426 483.071,400.999 477.551,408.526C476.332,410.262 476.241,410.21 476.24,410.393C476.238,410.826 476.653,411.178 476.699,411.609C476.731,411.906 476.431,412.177 476.463,412.474C473.658,415.825 472.897,415.872 469.829,418.858C466.531,422.07 466.846,422.344 463.537,425.572C463.375,425.484 461.515,424.476 461.515,424.476C461.268,424.385 460.983,424.444 460.737,424.352C460.807,424.07 460.503,423.777 460.573,423.494C460.573,423.494 461.467,421.795 461.545,421.647C462.256,421.382 462.967,421.117 463.679,420.852C463.997,420.781 464.315,420.71 464.633,420.639C464.778,420.49 465.032,420.481 465.177,420.332C465.381,420.124 465.472,419.829 465.649,419.599C468.175,416.295 469.412,415.525 472.75,410.682C474.561,408.054 475.407,407.33 476.263,406.282C478.021,404.13 478.586,403.155 479.811,401.813C481.524,399.934 481.518,399.949 482.96,397.868C485.846,393.704 487.445,393.043 488.28,392.424Z" style="fill:rgb(205,205,215);"/>
        </g>
        <g transform="matrix(2.423828,0,0,2.423828,0,0)">
            <path d="M485.396,388.114C484.714,388.656 484.548,388.463 483.191,390.238C482.547,391.08 482.552,391.068 481.894,391.894C479.582,394.799 479.36,396.76 477.247,399.248C475.156,401.711 473.841,405.359 472.507,405.317C472.441,405.315 471.694,404.552 471.694,404.487C471.692,403.253 476.179,397.265 476.473,396.493C477.438,393.963 477.383,393.958 478.677,391.558C480.745,387.719 479.789,386.234 486.648,383.934C494.927,381.158 494.763,380.718 495.503,380.554C496.893,380.246 496.729,381.384 496.711,381.506C496.708,381.524 496.935,381.747 494.038,384.012C490.435,386.829 489.791,387.628 488.546,388.599C487.647,389.3 487.556,389.859 486.673,389.119C486.524,388.994 486.624,388.694 486.474,388.569C486.115,388.417 485.756,388.266 485.396,388.114Z" style="fill:rgb(208,208,216);"/>
        </g>
        <g transform="matrix(2.423828,0,0,2.423828,0,0)">
            <path d="M571.627,423.315C573.128,424.83 573.251,424.752 574.163,426.69C575.422,429.367 575.922,435.369 569.516,437.548C568.746,437.81 560.218,440.71 559.405,438.586C558.865,437.177 559.446,432.674 559.527,432.607C559.833,432.355 560.375,432.573 560.681,432.32C560.785,432.542 560.774,432.807 560.878,433.028C560.961,433.204 561.704,434.781 562.51,434.834C564.082,434.937 563.307,434.061 563.234,432.473C563.156,430.772 563.41,430.821 564.008,429.234C564.597,430 565.186,430.766 565.774,431.531C565.828,433.111 565.765,433.114 565.832,433.232C566.435,434.293 569.503,435.358 570.664,432.63C571.841,429.863 571.981,429.222 571.69,427.462C571.19,424.451 570.283,424.82 570.334,424.57C570.453,423.981 571.508,423.904 571.627,423.315Z" style="fill:rgb(236,236,236);"/>
        </g>
        <g transform="matrix(2.423828,0,0,2.423828,0,0)">
            <path d="M511.73,352.623C511.979,352.941 512.365,353.134 512.615,353.452C512.763,353.64 512.779,353.903 512.898,354.11C513.001,354.289 513.311,354.396 513.278,354.6C513.217,354.974 512.877,355.245 512.662,355.557C512.662,355.557 511.682,356.506 511.597,356.589C511.138,356.594 510.884,355.86 510.425,355.865C510.41,355.865 509.241,356.798 508.498,357.498C502.896,362.778 502.765,362.621 502.318,363.118C500.605,365.027 500.409,364.798 498.501,366.501C493.221,371.214 488.612,373.753 483.449,378.407C480.79,380.371 479.652,380.627 479.506,380.698C479.072,380.257 478.638,379.817 478.203,379.376C480.71,377.213 480.646,377.148 483.4,375.322C487.107,372.865 487.011,372.399 488.439,371.423C490.671,369.899 491.342,369.125 492.422,368.405C495.953,366.047 496.219,364.812 499.395,362.357C504.051,358.758 504.014,358.717 504.438,358.43C505.039,358.022 504.986,357.981 505.535,357.531C506.222,357.03 506.285,357.141 507.8,355.826C508.452,355.26 508.375,355.213 508.954,354.595C509.816,354.104 509.825,354.151 510.66,353.624C511.471,353.112 511.625,352.72 511.73,352.623Z" style="fill:rgb(228,228,231);"/>
        </g>
        <g transform="matrix(2.423828,0,0,2.423828,0,0)">
            <path d="M535.509,416.868C535.776,416.982 536.112,416.794 536.379,416.907C536.776,417.076 537.068,417.425 537.416,417.678C538.345,418.353 538.358,418.302 539.4,418.805C539.576,418.89 539.705,419.064 539.891,419.126C540.663,419.384 545.937,420.159 546.465,420.236C549.71,420.713 549.984,421.893 550.49,422.283L549.533,423.544C549.28,423.375 548.935,424.044 548.683,423.875C548.178,423.537 548.054,422.835 547.718,422.329C547.628,422.193 547.563,421.994 547.406,421.952C547.11,421.872 543.811,421.579 543.498,421.552C541.978,421.417 542.021,421.265 540.518,421.108C538.443,420.89 538.578,421.801 535.86,423.836C527.84,429.84 530.542,437.411 530.492,437.485C530.309,437.76 529.784,437.661 529.502,437.49C528.287,436.754 526.424,432.001 530.237,426.349C531.687,424.199 531.577,424.133 531.714,423.954C532.136,423.401 534.918,422.018 535.466,421.475C536.837,420.114 535.87,419.832 535.539,418.487C535.451,418.132 535.439,417.761 535.351,417.405L535.509,416.868Z" style="fill:rgb(223,223,227);"/>
        </g>
        <g transform="matrix(2.423828,0,0,2.423828,0,0)">
            <path d="M511.597,356.589C511.351,356.825 511.361,356.831 508.605,359.617C505.961,362.289 504.245,363.487 503.943,363.782C502.124,365.552 502.543,365.994 496.634,370.664C496.231,370.982 493.439,373.189 491.549,374.574C487.29,377.694 487.223,377.577 486.858,377.853C486.858,377.853 485.503,379.459 485.385,379.599C484.739,379.202 484.094,378.804 483.449,378.407C488.612,373.753 493.221,371.214 498.501,366.501C500.409,364.798 500.605,365.027 502.318,363.118C502.765,362.621 502.896,362.778 508.498,357.498C509.241,356.798 510.41,355.865 510.425,355.865C510.884,355.86 511.138,356.594 511.597,356.589Z" style="fill:rgb(76,76,124);"/>
        </g>
        <g transform="matrix(2.423828,0,0,2.423828,0,0)">
            <path d="M460.737,424.352C460.983,424.444 461.268,424.385 461.515,424.476C461.515,424.476 463.375,425.484 463.537,425.572C461.001,428.008 461.097,428.072 458.829,430.75C452.613,438.089 449.771,442.542 449.197,443.167C448.304,444.139 448.141,444.809 447.212,443.877C447.064,443.729 446.767,443.67 446.738,443.463C446.691,443.129 446.909,442.81 447.016,442.491C448.487,438.09 454.784,432.656 457.923,427.82C458.983,426.822 459.208,427.011 459.835,425.68C459.835,425.68 460.665,424.458 460.737,424.352Z" style="fill:rgb(194,194,207);"/>
        </g>
        <g transform="matrix(2.423828,0,0,2.423828,0,0)">
            <path d="M520.352,392.271C521.95,391.398 521.905,391.363 523.492,390.489C524.762,389.789 525.014,388.952 525.865,390.122C526.294,390.713 526.205,390.754 526.106,391.489C525.494,396.021 524.711,397.965 524.496,398.498C522.887,402.494 520.124,400.789 519.542,399.475C517.038,393.818 518.924,393.531 520.352,392.271Z" style="fill:rgb(236,236,236);"/>
        </g>
        <g transform="matrix(2.423828,0,0,2.423828,0,0)">
            <path d="M562.289,311.926C563.888,312.725 564.124,312.466 565.103,313.97C565.243,314.185 568.599,319.34 564.683,317.146C564.24,316.898 557.745,313.26 558.359,316.547C558.532,317.469 563.033,318.326 563.395,318.626C563.701,318.88 563.863,319.443 563.665,319.789C563.627,319.854 560.032,320.055 559.529,320.018C559.253,319.997 557.756,319.886 556.308,318.738C555.574,318.156 552.998,316.011 557.168,313.084C559.258,311.617 562.092,311.939 562.289,311.926Z" style="fill:rgb(235,235,235);"/>
        </g>
        <g transform="matrix(2.423828,0,0,2.423828,0,0)">
            <path d="M512.808,419.359L511.5,420.136C511.29,420.321 511.015,420.423 510.805,420.609C510.657,420.74 510.612,420.983 510.437,421.075C509.575,421.528 509.469,421.222 508.62,421.696C505.689,423.332 505.422,425.238 505.59,425.43C505.836,425.711 506.389,425.554 506.636,425.835C506.306,426.133 505.835,426.242 505.506,426.54C504.959,427.034 505.054,427.179 505.089,427.234C505.776,428.283 506.29,427.738 506.968,428.774C506.462,429.957 506.608,430.024 505.919,430.834C505.352,431.501 505.392,431.634 504.527,431.727C500.328,432.182 503.693,424.606 504.015,423.646C504.095,422.808 504.175,421.97 504.255,421.133C506.765,420.175 507.061,419.591 508.408,419.172C510.36,418.565 510.321,418.512 510.495,418.49C510.983,418.428 511.442,418.601 511.52,418.63C512.227,418.895 512.111,419.097 512.808,419.359Z" style="fill:rgb(68,68,118);"/>
        </g>
        <g transform="matrix(2.423828,0,0,2.423828,0,0)">
            <path d="M489.702,394.387C489.695,394.608 490.58,395.49 489.101,397.275C487.96,398.653 488.41,398.944 487.199,400.276C483.374,404.482 483.913,404.95 480.36,408.397C478.938,409.777 478.631,409.637 478.469,409.563C478.049,409.371 477.97,408.719 477.551,408.526C483.071,400.999 483.65,401.426 485.337,398.453C485.46,398.236 486.717,396.02 486.962,395.794C487.143,395.626 487.224,395.772 489.702,394.387Z" style="fill:rgb(53,53,108);"/>
        </g>
        <g transform="matrix(2.423828,0,0,2.423828,0,0)">
            <path d="M518.565,436.5C518.449,436.382 517.433,436 516.555,434.462C516.174,433.794 516.233,433.773 515.69,433.224C515.398,432.929 514.86,432.329 514.854,432.316C514.194,430.941 514.989,423.494 517.571,423.418C518.386,423.395 518.34,423.678 518.265,424.496C518.235,424.82 518.075,425.122 518.033,425.445C517.966,425.961 517.831,426.495 517.938,427.004C517.989,427.246 518.36,427.3 518.47,427.522C518.941,428.476 518.088,430.703 518.315,432.477C518.69,435.407 519.175,435.271 519.178,435.525C519.182,435.909 518.56,436.116 518.565,436.5Z" style="fill:rgb(135,135,166);"/>
        </g>
        <g transform="matrix(2.423828,0,0,2.423828,0,0)">
            <path d="M569.45,422.187C569.786,422.327 570.146,422.403 570.482,422.544C571.25,422.864 571.569,423.276 571.627,423.315C571.508,423.904 570.453,423.981 570.334,424.57C570.283,424.82 571.19,424.451 571.69,427.462C571.981,429.222 571.841,429.863 570.664,432.63C569.503,435.358 566.435,434.293 565.832,433.232C565.765,433.114 565.828,433.111 565.774,431.531C566.016,431.41 566.333,431.788 566.574,431.666C566.672,431.617 566.631,431.584 567.347,430.536C567.538,432.149 567.179,433.365 568.564,432.528C568.808,432.38 568.666,431.956 568.795,431.701C568.854,431.585 569.049,431.579 569.106,431.461C569.253,431.155 569.303,430.81 569.384,430.48C570.481,425.992 567.78,425.713 567.523,425.548C567.661,425.346 567.698,425.085 567.836,424.883C567.876,424.825 568.421,424.419 568.71,423.489C568.778,423.27 568.715,423.011 568.828,422.811C568.973,422.556 569.305,422.442 569.45,422.187Z" style="fill:rgb(137,137,167);"/>
        </g>
        <g transform="matrix(2.423828,0,0,2.423828,0,0)">
            <path d="M549.01,356.377C549.369,356.932 549.135,357.029 549.5,357.594C550.156,358.609 550.343,358.407 550.383,358.5C550.816,359.523 549.09,361.677 545.157,365.238C544.673,364.266 544.32,364.539 543.84,363.575C543.81,363.515 543.724,363.341 543.911,362.735C543.922,362.702 546.144,359.66 546.892,358.868C548.022,357.672 547.983,357.667 549.01,356.377Z" style="fill:rgb(151,151,177);"/>
        </g>
        <g transform="matrix(2.423828,0,0,2.423828,0,0)">
            <path d="M489.212,429.28C489.806,429.973 489.966,429.785 490.571,430.49C490.778,430.732 490.574,430.796 490.743,431.064C491.36,432.044 492.407,432.11 492.576,432.121C492.779,432.134 492.93,431.857 493.134,431.87C493.245,432.266 493.859,432.121 493.591,433.502C493.523,433.852 493.411,434.197 493.261,434.521C493.021,435.043 492.891,434.946 492.671,435.5C492.53,435.855 492.723,435.878 492.583,436.229C490.651,436.317 490.391,436.548 489.265,434.983C488.944,434.538 488.694,434.036 488.321,433.633C488.21,433.513 487.889,433.626 487.861,433.466C487.819,433.221 487.625,432.098 488.328,430.394C488.748,429.378 489.048,429.486 489.212,429.28Z" style="fill:rgb(181,181,197);"/>
        </g>
        <g transform="matrix(2.423828,0,0,2.423828,0,0)">
            <path d="M562.9,424.673C563.152,424.791 563.32,424.062 563.572,424.18C563.572,424.18 565.53,426.469 565.701,426.669L565.134,427.248C564.475,428.202 564.501,428.198 564.008,429.234C563.41,430.821 563.156,430.772 563.234,432.473C563.307,434.061 564.082,434.937 562.51,434.834C561.704,434.781 560.961,433.204 560.878,433.028C560.774,432.807 560.785,432.542 560.681,432.32C560.753,432.047 560.439,431.764 560.511,431.491C560.531,431.414 561.123,431.026 561.695,428.512C562.336,425.69 562.604,425.534 562.9,424.673Z" style="fill:rgb(66,66,117);"/>
        </g>
        <g transform="matrix(2.423828,0,0,2.423828,0,0)">
            <path d="M541.374,427.168C541.71,427.377 542.224,426.97 542.561,427.178C542.622,427.216 542.27,427.34 542.801,428.053C543.067,428.41 543.269,428.129 543.533,428.484L543.82,429.227C542.925,429.728 542.976,429.784 542.074,430.288C541.971,430.347 541.753,430.277 541.733,430.394C541.684,430.683 541.959,430.967 541.909,431.256C541.677,431.737 541.131,432.019 540.899,432.5C540.709,432.893 540.784,433.366 540.686,433.791C540.278,435.568 539.685,435.646 539.509,435.669C537.329,435.956 539.323,429.962 539.479,429.493C540.115,427.58 541.319,427.22 541.374,427.168Z" style="fill:rgb(149,149,175);"/>
        </g>
        <g transform="matrix(2.423828,0,0,2.423828,0,0)">
            <path d="M493.514,428.708C493.368,428.946 493.39,429.262 493.244,429.5C493.025,429.858 492.455,430.046 492.435,430.466C492.411,430.988 493.158,431.348 493.134,431.87C492.93,431.857 492.779,432.134 492.576,432.121C492.407,432.11 491.36,432.044 490.743,431.064C490.574,430.796 490.778,430.732 490.571,430.49C489.966,429.785 489.806,429.973 489.212,429.28C489.387,429.07 489.592,428.887 489.767,428.678C490.369,427.957 490.448,423.481 492.414,423.337C492.782,423.31 493.308,423.152 493.513,423.458C493.628,423.629 492.957,424.338 492.713,426.463C492.618,427.287 492.618,427.376 492.618,427.456C492.621,428.812 493.369,428.505 493.514,428.708Z" style="fill:rgb(225,225,229);"/>
        </g>
        <g transform="matrix(2.423828,0,0,2.423828,0,0)">
            <path d="M547.084,308.702C547.025,308.278 546.718,307.913 546.659,307.488C546.604,307.088 547.036,305.098 549.654,306.145C551.062,306.708 551.622,308.836 551.603,309.51C551.555,311.185 550.96,311.347 549.451,310.649C547.501,309.747 547.109,308.727 547.084,308.702Z" style="fill:rgb(42,42,100);"/>
        </g>
        <g transform="matrix(2.423828,0,0,2.423828,0,0)">
            <path d="M529.426,410.845C527.128,409.428 527.002,409.322 526.811,409.161C523.222,406.14 523.058,406.369 522.756,406.096C522.668,406.017 522.323,404.728 522.348,404.369C522.403,403.577 523.383,403.624 523.492,403.629C524.089,403.658 524.922,404.76 525.017,404.886C526.582,406.956 529.536,408.688 529.648,409.51C529.709,409.957 529.365,410.398 529.426,410.845Z" style="fill:rgb(204,204,214);"/>
        </g>
        <g transform="matrix(2.423828,0,0,2.423828,0,0)">
            <path d="M567.523,425.548C567.78,425.713 570.481,425.992 569.384,430.48C569.303,430.81 569.253,431.155 569.106,431.461C569.049,431.579 568.854,431.585 568.795,431.701C568.666,431.956 568.808,432.38 568.564,432.528C567.179,433.365 567.538,432.149 567.347,430.536C567.305,430.211 567.37,429.878 567.327,429.552C567.127,428.014 566.603,428.33 565.134,427.248L565.701,426.669C566.341,426.201 566.35,426.236 567.523,425.548Z" style="fill:rgb(233,233,234);"/>
        </g>
        <g transform="matrix(2.423828,0,0,2.423828,0,0)">
            <path d="M518.936,346.981C519.149,346.856 519.283,346.62 519.497,346.494C519.64,346.41 521.477,345.33 521.58,346.467C521.731,348.144 521.054,347.872 519.78,348.977C519.494,349.225 519.523,349.231 518.46,350.469C518.318,350.634 517.214,351.92 516.409,352.259C516.292,352.308 515.037,352.836 514.991,351.546C514.961,350.712 518.548,347.366 518.936,346.981Z" style="fill:rgb(166,166,187);"/>
        </g>
        <g transform="matrix(2.423828,0,0,2.423828,0,0)">
            <path d="M567.296,421.776C568.014,421.913 568.732,422.05 569.45,422.187C569.305,422.442 568.973,422.556 568.828,422.811C568.715,423.011 568.778,423.27 568.71,423.489C568.421,424.419 567.876,424.825 567.836,424.883C567.698,425.085 567.661,425.346 567.523,425.548C566.35,426.236 566.341,426.201 565.701,426.669C565.53,426.469 563.572,424.18 563.572,424.18C563.32,424.062 563.152,424.791 562.9,424.673C562.818,424.158 562.36,423.753 562.278,423.238C562.218,422.862 562.528,422.65 562.574,422.619C562.949,422.364 563.049,422.712 563.427,422.455C563.848,422.724 563.973,423.331 564.394,423.6C565.511,424.312 566.274,423.447 566.38,423.326C566.426,423.275 566.266,423.215 566.679,422.517C566.926,422.098 567.042,422.206 567.296,421.776Z" style="fill:rgb(105,105,144);"/>
        </g>
        <g transform="matrix(2.423828,0,0,2.423828,0,0)">
            <path d="M510.204,349.305C510.355,349.406 512.089,350.559 512.089,350.559C512.108,350.631 512.265,351.229 512.222,351.478C512.15,351.887 511.801,352.214 511.73,352.623C511.625,352.72 511.471,353.112 510.66,353.624C509.825,354.151 509.816,354.104 508.954,354.595C508.405,353.861 507.855,353.128 507.305,352.394C508.753,350.838 508.715,350.82 510.204,349.305Z" style="fill:rgb(170,170,190);"/>
        </g>
        <g transform="matrix(2.423828,0,0,2.423828,0,0)">
            <path d="M461.545,421.647C461.467,421.795 460.573,423.494 460.573,423.494C460.503,423.777 460.807,424.07 460.737,424.352C460.665,424.458 459.835,425.68 459.835,425.68C459.208,427.011 458.983,426.822 457.923,427.82C457.572,427.062 457.847,426.989 457.5,426.239C457.129,425.437 456.884,425.642 456.881,425.569C456.875,425.417 459.092,421.361 460.459,421.372C460.832,421.375 461.171,421.644 461.545,421.647Z" style="fill:rgb(81,81,128);"/>
        </g>
        <g transform="matrix(2.423828,0,0,2.423828,0,0)">
            <path d="M529.426,410.845C529.856,410.83 530.104,410.194 530.534,410.18C531.161,410.159 535.081,414.587 535.389,415.513C535.532,415.944 535.366,416.438 535.509,416.868L535.351,417.405C534.334,416.51 534.277,416.571 533.545,415.448C533.082,414.738 531.389,413.222 530.812,412.443C530.601,412.158 530.494,411.8 530.258,411.536C530.061,411.317 529.99,411.465 529.778,411.289C529.541,411.093 529.647,411.028 529.426,410.845Z" style="fill:rgb(165,165,187);"/>
        </g>
        <g transform="matrix(2.423828,0,0,2.423828,0,0)">
            <path d="M553.956,342.558C553.999,343.018 554.041,343 554.082,343.446C554.191,344.632 553.971,345.43 553.967,345.502C553.553,345.777 552.889,345.225 552.474,345.5C551.068,346.434 551.966,347.278 550.483,348.107C550.317,348.199 548.057,348.594 549.984,345.783C550.077,345.649 550.195,345.533 550.284,345.397C551.592,343.39 551.798,343.572 553.956,342.558Z" style="fill:rgb(131,131,163);"/>
        </g>
        <g transform="matrix(2.423828,0,0,2.423828,0,0)">
            <path d="M543.82,429.227C544.202,429.515 544.753,429.514 545.135,429.802C545.422,430.018 545.496,430.435 545.507,430.497C545.597,431.013 545.344,430.992 545.434,431.504C544.439,432.927 544.45,432.915 543.513,434.386C543.266,434.222 542.924,434.245 542.677,434.081C542.341,433.859 542.228,432.734 542.216,432.612C542.179,432.248 542.242,431.874 542.162,431.518C542.135,431.399 541.936,431.375 541.909,431.256C541.959,430.967 541.684,430.683 541.733,430.394C541.753,430.277 541.971,430.347 542.074,430.288C542.976,429.784 542.925,429.728 543.82,429.227Z" style="fill:rgb(131,131,163);"/>
        </g>
        <g transform="matrix(2.423828,0,0,2.423828,0,0)">
            <path d="M506.636,425.835C506.389,425.554 505.836,425.711 505.59,425.43C505.422,425.238 505.689,423.332 508.62,421.696C509.469,421.222 509.575,421.528 510.437,421.075C510.612,420.983 510.657,420.74 510.805,420.609C511.015,420.423 511.29,420.321 511.5,420.136C511.302,420.647 511.907,421.255 511.709,421.766C511.701,421.788 509.871,423.038 509.455,423.292C508.547,423.844 508.474,423.732 507.77,424.553C507.421,424.96 507.565,425.038 507.214,425.435C506.973,425.707 506.876,425.564 506.636,425.835Z" style="fill:rgb(147,147,174);"/>
        </g>
        <g transform="matrix(2.423828,0,0,2.423828,0,0)">
            <path d="M513.523,416.595C513.805,416.628 514.458,416.142 515.747,417.086C516.982,417.989 517.069,417.845 517.156,417.945C517.282,418.091 517.279,419.031 517.142,419.194C516.924,419.453 513.746,420.393 513.529,420.291C513.174,420.124 513.163,419.526 512.808,419.359C513.076,417.948 513.068,417.963 513.523,416.595Z" style="fill:rgb(232,232,233);"/>
        </g>
        <g transform="matrix(2.423828,0,0,2.423828,0,0)">
            <path d="M507.305,352.394C507.855,353.128 508.405,353.861 508.954,354.595C508.375,355.213 508.452,355.26 507.8,355.826C506.285,357.141 506.222,357.03 505.535,357.531C505.336,356.926 505.698,356.897 505.5,356.291C505.342,355.808 504.938,356.067 504.891,355.566C504.795,354.534 507.063,352.601 507.305,352.394Z" style="fill:rgb(121,121,156);"/>
        </g>
        <g transform="matrix(2.423828,0,0,2.423828,0,0)">
            <path d="M478.203,379.376C478.638,379.817 479.072,380.257 479.506,380.698C474.972,383.225 474.748,384.166 473.915,383.112C473.002,381.958 476.747,379.772 477.486,379.484C477.711,379.397 477.978,379.464 478.203,379.376Z" style="fill:rgb(123,123,157);"/>
        </g>
        <g transform="matrix(2.423828,0,0,2.423828,0,0)">
            <path d="M494.987,424.537C495.296,424.315 495.203,423.746 495.512,423.524C495.793,423.321 496.203,423.369 496.547,423.416C496.831,423.456 497.046,423.723 497.328,423.775C497.691,423.842 498.094,423.625 498.435,423.765C498.909,423.96 499.162,424.529 499.635,424.723C499.547,424.926 499.557,425.726 498.508,426.514C498.364,426.623 495.814,428.541 496.252,426.5C496.356,426.012 497.212,425.643 496.988,425.198C496.83,424.883 495.317,424.384 495.163,424.333C495.078,424.305 495.072,424.565 494.987,424.537Z" style="fill:rgb(177,177,195);"/>
        </g>
        <g transform="matrix(2.423828,0,0,2.423828,0,0)">
            <path d="M545.434,431.504C545.734,431.884 546.186,432.127 546.486,432.507C547.206,433.418 547.239,433.477 546.948,434.603C546.914,434.733 546.604,435.931 546.135,436.075C545.896,436.148 545.816,436.173 543.513,434.386C544.45,432.915 544.439,432.927 545.434,431.504Z" style="fill:rgb(180,180,197);"/>
        </g>
        <g transform="matrix(2.423828,0,0,2.423828,0,0)">
            <path d="M520.768,426.783C521.06,426.734 521.104,426.203 521.396,426.154C522.543,425.963 522.646,426.343 522.529,427.498C522.385,428.91 522.223,428.876 522.107,430.296C522.094,430.45 521.907,432.733 520.532,431.42C520.342,431.238 520.595,429.619 520.619,429.464C520.847,428.009 520.636,428.009 520.642,427.591C520.646,427.318 520.764,427.055 520.768,426.783Z" style="fill:rgb(188,188,203);"/>
        </g>
        <g transform="matrix(2.423828,0,0,2.423828,0,0)">
            <path d="M565.134,427.248C566.603,428.33 567.127,428.014 567.327,429.552C567.37,429.878 567.305,430.211 567.347,430.536C566.631,431.584 566.672,431.617 566.574,431.666C566.333,431.788 566.016,431.41 565.774,431.531C565.186,430.766 564.597,430 564.008,429.234C564.501,428.198 564.475,428.202 565.134,427.248Z" style="fill:rgb(184,184,200);"/>
        </g>
        <g transform="matrix(2.423828,0,0,2.423828,0,0)">
            <path d="M526.864,428.645C526.555,429.594 526.247,430.543 525.938,431.492C525.523,431.062 524.816,430.999 524.401,430.569C523.922,430.074 524.272,428.614 524.311,428.449C524.679,426.918 525.255,426.216 526.186,427.5C526.447,427.859 526.603,428.286 526.864,428.645Z" style="fill:rgb(189,189,203);"/>
        </g>
        <g transform="matrix(2.423828,0,0,2.423828,0,0)">
            <path d="M533.456,344.425C533.416,344.866 533.3,344.828 533.259,345.279C533.166,346.305 533.306,346.297 533.28,346.381C533.227,346.546 532.663,348.317 531.484,347.581C530.89,347.21 530.642,346.418 530.048,346.047C530.879,344.616 530.805,344.256 532.449,344.253C532.79,344.252 533.115,344.426 533.456,344.425Z" style="fill:rgb(113,113,150);"/>
        </g>
        <g transform="matrix(2.423828,0,0,2.423828,0,0)">
            <path d="M522.373,388.487C522.476,388.174 522.479,387.835 522.581,387.522C523.384,385.067 525.779,385.397 525.751,386.457C525.74,386.84 525.537,387.223 525.279,387.507C525.148,387.651 524.869,387.507 524.704,387.611C524.326,387.849 524.12,388.343 523.702,388.5C523.287,388.656 522.788,388.331 522.373,388.487Z" style="fill:rgb(159,159,182);"/>
        </g>
        <g transform="matrix(2.423828,0,0,2.423828,0,0)">
            <path d="M552.276,337.51C552.816,337.834 553.419,338.044 553.959,338.367C554.179,338.499 554.095,339.44 554.086,339.533C554.086,339.533 553.901,340.384 553.901,340.384C553.854,340.918 553.964,340.903 553.917,341.429C552.363,339.978 551.499,340.247 551.889,338.519C551.969,338.168 552.197,337.862 552.276,337.51Z" style="fill:rgb(147,147,173);"/>
        </g>
        <g transform="matrix(2.423828,0,0,2.423828,0,0)">
            <path d="M567.296,421.776C567.042,422.206 566.926,422.098 566.679,422.517C566.266,423.215 566.426,423.275 566.38,423.326C566.274,423.447 565.511,424.312 564.394,423.6C563.973,423.331 563.848,422.724 563.427,422.455C563.917,422.282 564.316,421.899 564.807,421.725C564.995,421.659 564.988,421.729 567.296,421.776Z" style="fill:rgb(199,199,210);"/>
        </g>
        <g transform="matrix(2.423828,0,0,2.423828,0,0)">
            <path d="M541.374,427.168C541.747,426.592 542.176,427.328 542.544,426.759C542.928,426.166 541.946,426.003 542.448,425.511C542.709,425.254 543.19,425.627 543.5,425.821C544.832,426.656 544.035,427.002 543.533,428.484C543.269,428.129 543.067,428.41 542.801,428.053C542.27,427.34 542.622,427.216 542.561,427.178C542.224,426.97 541.71,427.377 541.374,427.168Z" style="fill:rgb(186,186,201);"/>
        </g>
        <g transform="matrix(2.423828,0,0,2.423828,0,0)">
            <path d="M500.004,380.725C499.951,380.625 499.35,379.472 499.35,379.472C499.34,379.347 499.257,378.316 500.513,378.411C500.928,378.443 501.708,379.32 501.64,379.429C501.271,380.019 500.373,380.135 500.004,380.725Z" style="fill:rgb(87,87,132);"/>
        </g>
        <g transform="matrix(2.423828,0,0,2.423828,0,0)">
            <path d="M512.487,411.641C512.309,411.227 511.803,411.013 511.625,410.599C511.528,410.372 511.573,410.061 511.724,409.866C511.807,409.759 512.601,408.733 513.32,410.46C513.515,410.928 513.295,411.241 513.256,411.295C512.99,411.673 512.748,411.271 512.487,411.641Z" style="fill:rgb(175,175,194);"/>
        </g>
        <g transform="matrix(2.423828,0,0,2.423828,0,0)">
            <path d="M514.551,356.669C514.929,356.481 515.21,356.13 515.588,355.942C516.054,355.71 516.966,355.777 517.008,355.834C517.144,356.021 517.117,356.319 517.019,356.529C516.934,356.71 516.903,356.673 515.451,358.473C515.463,358.1 515.835,357.798 515.847,357.425C515.874,356.606 515.593,356.442 515.518,356.399C515.019,356.108 515.04,356.954 514.551,356.669Z" style="fill:rgb(166,166,187);"/>
        </g>
        <g transform="matrix(2.423828,0,0,2.423828,0,0)">
            <path d="M500.664,372.529C500.607,373.16 500.551,373.791 500.495,374.422C500.307,374.209 499.867,374.387 499.679,374.174C499.44,373.903 499.653,373.546 499.681,373.5C500.044,372.895 500.3,373.136 500.664,372.529Z" style="fill:rgb(133,133,163);"/>
        </g>
    </g>
</svg>
