<?xml version="1.0" encoding="UTF-8"?>
<!DOCTYPE svg PUBLIC "-//W3C//DTD SVG 1.1//EN" "http://www.w3.org/Graphics/SVG/1.1/DTD/svg11.dtd">
<svg xmlns="http://www.w3.org/2000/svg" version="1.1" width="2063px" height="1050px" style="shape-rendering:geometricPrecision; text-rendering:geometricPrecision; image-rendering:optimizeQuality; fill-rule:evenodd; clip-rule:evenodd" xmlns:xlink="http://www.w3.org/1999/xlink">
<g><path style="opacity:1" fill="#e6e7e6" d="M 1106.5,-0.5 C 1112.17,-0.5 1117.83,-0.5 1123.5,-0.5C 1137.37,2.35743 1149.21,9.0241 1159,19.5C 1161.28,25.2202 1161.78,31.0536 1160.5,37C 1165.37,42.5726 1168.2,49.0726 1169,56.5C 1172.38,60.4781 1171.38,61.4781 1166,59.5C 1164.73,60.5353 1163.56,61.702 1162.5,63C 1157.79,63.3751 1153.12,64.0418 1148.5,65C 1149.02,65.5613 1149.36,66.228 1149.5,67C 1144.11,71.4625 1141.61,77.2958 1142,84.5C 1141.14,101.514 1140.14,118.514 1139,135.5C 1138.51,138.982 1137.34,142.149 1135.5,145C 1136.55,146.388 1136.72,147.888 1136,149.5C 1127.76,173.471 1113.93,193.638 1094.5,210C 1089.28,213.779 1083.61,216.779 1077.5,219C 1076.33,220.167 1075.17,221.333 1074,222.5C 1071.78,233.492 1069.61,244.492 1067.5,255.5C 1068.99,255.533 1070.32,256.033 1071.5,257C 1070.32,258.674 1068.99,260.174 1067.5,261.5C 1078.69,271.523 1089.02,282.357 1098.5,294C 1100.5,295 1102.5,296 1104.5,297C 1114.98,297.244 1124.81,299.744 1134,304.5C 1140.35,302.469 1146.85,301.135 1153.5,300.5C 1157.85,301.648 1162.18,301.648 1166.5,300.5C 1183.71,304.241 1190.88,314.907 1188,332.5C 1185.65,339.519 1181.15,344.686 1174.5,348C 1166.85,350.107 1159.19,352.107 1151.5,354C 1142.83,354.667 1134.17,354.667 1125.5,354C 1123.23,352.448 1120.73,351.615 1118,351.5C 1113.36,352.118 1108.86,353.285 1104.5,355C 1100.8,355.681 1097.13,355.515 1093.5,354.5C 1086.42,357.409 1079.26,360.075 1072,362.5C 1065.34,361.856 1060.18,358.69 1056.5,353C 1053.38,351.355 1050.21,349.855 1047,348.5C 1046.75,349.624 1046.25,350.624 1045.5,351.5C 1035.19,347.277 1024.52,346.277 1013.5,348.5C 1004.46,348.381 995.455,347.714 986.5,346.5C 979.412,348.961 973.245,347.628 968,342.5C 968.077,331.768 969.077,321.102 971,310.5C 973.408,308.044 976.241,306.211 979.5,305C 989.521,304.538 999.521,304.538 1009.5,305C 1013.98,303.842 1018.15,302.009 1022,299.5C 1024.41,298.804 1026.74,298.471 1029,298.5C 1028.59,284.136 1025.26,270.469 1019,257.5C 1016.62,254.781 1013.95,252.447 1011,250.5C 1000.02,255.482 989.52,261.315 979.5,268C 960.217,281.27 942.717,296.77 927,314.5C 923.719,319.781 919.719,324.447 915,328.5C 913.247,331.005 911.747,333.671 910.5,336.5C 907.991,337.921 905.657,339.588 903.5,341.5C 896.078,351.426 889.244,361.76 883,372.5C 878.624,375.874 874.958,379.874 872,384.5C 867.721,388.39 862.888,391.39 857.5,393.5C 856.264,392.754 854.93,392.421 853.5,392.5C 856.184,384.287 859.184,376.12 862.5,368C 862.355,367.228 862.022,366.561 861.5,366C 859.112,365.697 856.945,364.863 855,363.5C 854.685,362.092 855.018,360.759 856,359.5C 887.118,315.434 917.618,270.934 947.5,226C 939.918,228.698 932.251,231.532 924.5,234.5C 921.79,231.785 922.123,229.285 925.5,227C 919.946,228.301 914.28,229.468 908.5,230.5C 906.616,229.307 906.116,227.641 907,225.5C 938.083,203.466 966.749,177.799 993,148.5C 1002.25,135.916 1012.25,123.916 1023,112.5C 1042.21,86.0878 1058.88,58.0878 1073,28.5C 1078.46,21.3725 1084.29,14.5392 1090.5,8C 1095.48,4.344 1100.82,1.51066 1106.5,-0.5 Z M 976.5,257.5 C 976.775,259.758 977.775,260.092 979.5,258.5C 982.377,254.272 981.71,253.605 977.5,256.5C 977.631,255.624 977.298,254.957 976.5,254.5C 973.926,255.666 971.759,257.333 970,259.5C 969.316,260.784 969.483,261.951 970.5,263C 967.422,264.526 965.588,267.026 965,270.5C 961.264,273.086 957.43,275.419 953.5,277.5C 959.773,269.272 966.273,261.272 973,253.5C 974.127,250.623 974.794,247.623 975,244.5C 975.605,246.481 976.605,246.815 978,245.5C 978.311,243.444 978.811,241.444 979.5,239.5C 978.675,238.614 977.675,238.281 976.5,238.5C 977.494,235.601 976.494,234.934 973.5,236.5C 975.111,234.359 976.611,232.026 978,229.5C 981.606,228.226 984.273,225.893 986,222.5C 986.423,223.956 987.256,224.456 988.5,224C 997.337,215.209 1007.67,208.709 1019.5,204.5C 1023.79,198.664 1029.12,196.331 1035.5,197.5C 1036.84,196.653 1037.84,195.487 1038.5,194C 1041.27,193.474 1043.94,192.641 1046.5,191.5C 1045.97,190.808 1045.31,190.308 1044.5,190C 1046.1,188.185 1048.1,187.018 1050.5,186.5C 1054.5,183.162 1058.17,179.495 1061.5,175.5C 1061.56,176.043 1061.89,176.376 1062.5,176.5C 1066.18,173.972 1068.18,170.472 1068.5,166C 1069.79,165.51 1071.13,165.343 1072.5,165.5C 1073.09,160.389 1075.59,156.389 1080,153.5C 1080.83,151.833 1081.67,150.167 1082.5,148.5C 1083.25,146.614 1083.25,144.447 1082.5,142C 1083.86,138.91 1085.03,135.744 1086,132.5C 1092.66,126.689 1097.49,119.689 1100.5,111.5C 1099.19,110.374 1097.86,110.374 1096.5,111.5C 1097.32,109.545 1097.49,107.545 1097,105.5C 1095.51,104.253 1094.01,104.253 1092.5,105.5C 1091.33,108.5 1090.17,111.5 1089,114.5C 1086.07,115.269 1083.91,116.935 1082.5,119.5C 1082.63,118.624 1082.3,117.957 1081.5,117.5C 1080.1,117.36 1078.6,117.36 1077,117.5C 1075.7,120.147 1074.37,122.814 1073,125.5C 1064.43,136.042 1055.43,146.042 1046,155.5C 1045.59,155.043 1045.09,154.709 1044.5,154.5C 1043.3,155.531 1041.97,156.365 1040.5,157C 1041.33,157.915 1042.33,158.581 1043.5,159C 1040.47,160.191 1038.8,162.358 1038.5,165.5C 1032.63,167.188 1027.63,170.355 1023.5,175C 1024.5,175.333 1025.5,175.667 1026.5,176C 1019.7,181.736 1012.03,185.903 1003.5,188.5C 1004.96,186.537 1006.63,184.704 1008.5,183C 1012.16,181.61 1015.83,180.11 1019.5,178.5C 1020.58,177.635 1020.75,176.635 1020,175.5C 1018.67,176.582 1017.17,177.249 1015.5,177.5C 1019.18,171.494 1024.18,166.827 1030.5,163.5C 1035.69,157.478 1040.69,151.312 1045.5,145C 1042.17,143.837 1040.17,145.003 1039.5,148.5C 1038.91,148.291 1038.41,147.957 1038,147.5C 1026.16,160.009 1013.66,171.842 1000.5,183C 992.547,188.618 984.88,194.618 977.5,201C 974.28,202.352 970.947,203.186 967.5,203.5C 967.908,202.357 968.575,201.357 969.5,200.5C 983.07,191.266 996.07,181.266 1008.5,170.5C 1009.71,169.726 1009.71,168.893 1008.5,168C 1017.8,159.697 1026.8,151.031 1035.5,142C 1035,141.833 1034.5,141.667 1034,141.5C 1021.18,152.014 1008.68,162.847 996.5,174C 986.215,181.284 976.215,188.95 966.5,197C 961.384,201.06 955.718,203.727 949.5,205C 954.267,199.454 959.933,195.121 966.5,192C 985.514,176.241 1004.51,160.574 1023.5,145C 1026.33,142.167 1029.17,139.333 1032,136.5C 1032.53,135.184 1032.03,134.517 1030.5,134.5C 1031.29,133.206 1032.29,132.039 1033.5,131C 1032.5,130.333 1031.5,130.333 1030.5,131C 1027.69,134.042 1025.52,137.209 1024,140.5C 1023.58,139.244 1022.75,138.577 1021.5,138.5C 1040.96,115.946 1056.13,90.6124 1067,62.5C 1067,64.5 1067,66.5 1067,68.5C 1070.77,64.9536 1072.94,60.6202 1073.5,55.5C 1079.71,48.7716 1085.21,41.4382 1090,33.5C 1092.02,31.316 1094.18,29.316 1096.5,27.5C 1095.83,26.8333 1095.17,26.1667 1094.5,25.5C 1095.98,23.5171 1097.65,21.6837 1099.5,20C 1105.75,16.37 1112.25,13.5367 1119,11.5C 1119.48,12.448 1119.65,13.448 1119.5,14.5C 1126.51,14.8339 1133.51,15.3339 1140.5,16C 1144.9,17.9064 1148.9,20.4064 1152.5,23.5C 1153.98,27.3952 1154.48,31.3952 1154,35.5C 1143.65,32.9481 1135.32,35.9481 1129,44.5C 1126.87,57.7191 1132.7,64.2191 1146.5,64C 1143.73,65.4669 1141.23,67.3002 1139,69.5C 1137.55,73.5611 1135.55,77.2278 1133,80.5C 1132.5,85.1548 1132.33,89.8215 1132.5,94.5C 1131.5,94.5 1130.5,94.5 1129.5,94.5C 1129.23,100.341 1128.39,106.007 1127,111.5C 1129.61,108.676 1131.28,105.342 1132,101.5C 1135,118.857 1130.83,134.19 1119.5,147.5C 1120.33,148.451 1120.49,149.451 1120,150.5C 1115.5,155.667 1111,160.833 1106.5,166C 1107.83,166.667 1109.17,166.667 1110.5,166C 1115,160.833 1119.5,155.667 1124,150.5C 1123.97,152.598 1123.3,154.598 1122,156.5C 1117.64,161.854 1112.98,166.854 1108,171.5C 1107.09,170.672 1106.42,169.672 1106,168.5C 1105.03,172.495 1102.69,175.161 1099,176.5C 1098.21,181.955 1095.21,185.622 1090,187.5C 1089.52,188.448 1089.35,189.448 1089.5,190.5C 1087.8,190.34 1086.13,190.506 1084.5,191C 1080.54,194.444 1077.21,198.278 1074.5,202.5C 1069.18,204.289 1063.51,205.956 1057.5,207.5C 1050.37,214.125 1043.37,220.958 1036.5,228C 1030.54,230.095 1024.87,232.929 1019.5,236.5C 1018.75,237.376 1018.25,238.376 1018,239.5C 1016.95,238.483 1015.78,238.316 1014.5,239C 1015.17,241 1016.5,242.333 1018.5,243C 1023.47,244.556 1028.47,244.89 1033.5,244C 1031.17,247.667 1028.83,251.333 1026.5,255C 1025.83,255.667 1025.17,255.667 1024.5,255C 1020.62,251.611 1016.62,248.444 1012.5,245.5C 999.584,250.042 987.417,256.042 976,263.5C 974.601,262.773 973.101,262.273 971.5,262C 973.062,260.366 974.729,258.866 976.5,257.5 Z M 1147.5,38.5 C 1158.31,39.1427 1163.81,44.8094 1164,55.5C 1157.83,51.0017 1151,48.5017 1143.5,48C 1142.55,48.7175 1142.38,49.5509 1143,50.5C 1149.1,52.9836 1155.27,55.4836 1161.5,58C 1155.86,59.0721 1150.19,59.4054 1144.5,59C 1132.67,54.0658 1132.01,48.0658 1142.5,41C 1144.31,40.2432 1145.98,39.4098 1147.5,38.5 Z M 1074.5,50.5 C 1073.96,52.1172 1073.63,53.7839 1073.5,55.5C 1072.83,55.5 1072.17,55.5 1071.5,55.5C 1071.75,53.326 1072.75,51.6594 1074.5,50.5 Z M 1018.5,141.5 C 1018.47,144.097 1017.47,145.097 1015.5,144.5C 1016.19,143.145 1017.19,142.145 1018.5,141.5 Z M 1082.5,197.5 C 1085,197.511 1085.17,198.178 1083,199.5C 1082.54,198.906 1082.37,198.239 1082.5,197.5 Z M 942.5,209.5 C 943.254,207.554 944.588,206.721 946.5,207C 945.529,208.481 944.196,209.315 942.5,209.5 Z M 956.5,234.5 C 955.749,233.427 954.749,233.26 953.5,234C 951.6,236.335 949.6,238.502 947.5,240.5C 950.579,234.673 953.412,228.673 956,222.5C 957.167,221.333 958.333,220.167 959.5,219C 970.926,213.97 982.593,209.97 994.5,207C 987.265,213.526 980.265,220.192 973.5,227C 972.092,227.315 970.759,226.982 969.5,226C 971.061,225.059 972.395,223.892 973.5,222.5C 972.277,221.386 970.944,221.219 969.5,222C 967.833,223 966.167,224 964.5,225C 961.969,228.358 959.302,231.524 956.5,234.5 Z M 1061.5,220.5 C 1062.17,219.733 1063.01,219.066 1064,218.5C 1064.19,220.061 1063.35,220.728 1061.5,220.5 Z M 1063.5,227.5 C 1064.5,227.5 1065.5,227.5 1066.5,227.5C 1066.03,237.063 1063.53,246.063 1059,254.5C 1055.84,255.919 1052.84,255.585 1050,253.5C 1047.72,249.065 1046.72,244.399 1047,239.5C 1049.35,236.157 1052.51,233.991 1056.5,233C 1058.54,230.664 1060.87,228.831 1063.5,227.5 Z M 970.5,240.5 C 960.579,255.094 950.246,269.428 939.5,283.5C 939.833,283.833 940.167,284.167 940.5,284.5C 941.852,283.476 943.185,282.476 944.5,281.5C 944.649,282.552 944.483,283.552 944,284.5C 933.706,293.724 923.54,303.057 913.5,312.5C 927.28,290.659 943.113,270.326 961,251.5C 963.231,248.719 965.231,245.719 967,242.5C 967.816,241.177 968.983,240.511 970.5,240.5 Z M 950.5,242.5 C 948.984,245.533 946.984,248.2 944.5,250.5C 945.529,247.109 947.529,244.443 950.5,242.5 Z M 1041.5,242.5 C 1042.12,242.611 1042.62,242.944 1043,243.5C 1043.19,250.883 1045.86,257.216 1051,262.5C 1051.54,265.529 1052.21,268.529 1053,271.5C 1066.03,278.861 1076.86,288.694 1085.5,301C 1070.83,304.207 1057.66,301.04 1046,291.5C 1039.84,280.517 1035.34,268.851 1032.5,256.5C 1035.49,251.84 1038.49,247.173 1041.5,242.5 Z M 1026.5,258.5 C 1027.91,260.225 1028.41,262.225 1028,264.5C 1026.68,262.75 1026.18,260.75 1026.5,258.5 Z M 1061.5,261.5 C 1062.04,261.56 1062.38,261.893 1062.5,262.5C 1061.83,263.5 1061.17,264.5 1060.5,265.5C 1063.4,268.115 1066.73,269.949 1070.5,271C 1069.29,271.893 1069.29,272.726 1070.5,273.5C 1072.66,274.035 1074.66,274.868 1076.5,276C 1073.45,276.821 1070.45,276.655 1067.5,275.5C 1068.64,274.575 1068.64,273.741 1067.5,273C 1065.05,270.525 1061.55,268.692 1057,267.5C 1055.99,265.975 1055.49,264.308 1055.5,262.5C 1057.74,262.795 1059.74,262.461 1061.5,261.5 Z M 1028.5,268.5 C 1032.03,269.297 1032.2,270.297 1029,271.5C 1028.52,270.552 1028.35,269.552 1028.5,268.5 Z M 1032.5,276.5 C 1032.88,277.931 1033.88,278.764 1035.5,279C 1034.65,280.022 1033.65,280.855 1032.5,281.5C 1031.21,279.701 1031.21,278.035 1032.5,276.5 Z M 953.5,277.5 C 952.746,279.446 951.412,280.279 949.5,280C 950.471,278.519 951.804,277.685 953.5,277.5 Z M 1077.5,279.5 C 1080.46,279.117 1081.46,280.117 1080.5,282.5C 1078.88,281.846 1077.22,281.346 1075.5,281C 1076.42,280.722 1077.08,280.222 1077.5,279.5 Z M 1084.5,287.5 C 1081.4,287.908 1079.07,286.741 1077.5,284C 1079.8,283.982 1082.13,284.149 1084.5,284.5C 1084.5,285.5 1084.5,286.5 1084.5,287.5 Z M 1034.5,284.5 C 1035.55,284.351 1036.55,284.517 1037.5,285C 1034.2,289.589 1033.2,289.422 1034.5,284.5 Z M 1084.5,287.5 C 1088.12,288.411 1088.29,289.745 1085,291.5C 1083.49,290.436 1083.32,289.103 1084.5,287.5 Z M 1033.5,292.5 C 1038.21,292.19 1041.88,294.023 1044.5,298C 1045.83,298.333 1047.17,298.667 1048.5,299C 1045.42,299.895 1042.42,300.895 1039.5,302C 1037.1,302.814 1034.76,302.647 1032.5,301.5C 1033.41,298.579 1033.74,295.579 1033.5,292.5 Z M 1086.5,293.5 C 1087.87,293.343 1089.21,293.51 1090.5,294C 1099.49,300.084 1109.49,303.084 1120.5,303C 1124.7,306.753 1129.7,308.587 1135.5,308.5C 1140.44,307.178 1145.44,306.678 1150.5,307C 1143.09,320.237 1140.09,334.403 1141.5,349.5C 1141,349.833 1140.5,350.167 1140,350.5C 1118.85,345.094 1098.35,346.76 1078.5,355.5C 1077.5,355 1076.5,354.5 1075.5,354C 1076.83,353.333 1076.83,352.667 1075.5,352C 1077.56,351.689 1079.56,351.189 1081.5,350.5C 1081.83,349.5 1082.17,348.5 1082.5,347.5C 1078.9,339.26 1079.73,331.26 1085,323.5C 1090.41,319.764 1094.74,315.097 1098,309.5C 1106.41,310.483 1114.91,310.817 1123.5,310.5C 1123.67,309.178 1123.34,308.011 1122.5,307C 1114.96,305.533 1107.46,304.033 1100,302.5C 1086.35,308.815 1077.85,319.315 1074.5,334C 1075.13,337.517 1075.79,341.017 1076.5,344.5C 1076.17,344.833 1075.83,345.167 1075.5,345.5C 1070.79,341.202 1068.96,335.869 1070,329.5C 1071.44,324.611 1073.44,319.945 1076,315.5C 1080.75,310.884 1085.92,306.884 1091.5,303.5C 1089.77,300.133 1088.11,296.8 1086.5,293.5 Z M 984.5,309.5 C 984.058,331.323 986.391,331.823 991.5,311C 991.355,310.228 991.022,309.561 990.5,309C 992.403,308.226 994.07,308.56 995.5,310C 993.879,314.016 993.379,318.183 994,322.5C 995.66,317.88 997.326,313.213 999,308.5C 997.416,321.036 998.916,321.536 1003.5,310C 1006.56,309.744 1009.56,309.244 1012.5,308.5C 1012.83,308.833 1013.17,309.167 1013.5,309.5C 1010.6,315.024 1008.6,320.857 1007.5,327C 1008.2,329.528 1009.86,330.694 1012.5,330.5C 1014.37,330.61 1015.87,329.944 1017,328.5C 1018.58,322.914 1021.75,318.414 1026.5,315C 1033.53,310.237 1041.03,306.404 1049,303.5C 1051.19,304.399 1053.36,305.399 1055.5,306.5C 1056.19,305.975 1056.69,305.308 1057,304.5C 1059.07,306.31 1060.9,308.31 1062.5,310.5C 1066.91,308.464 1071.57,307.964 1076.5,309C 1067.65,318.552 1064.49,329.718 1067,342.5C 1067.88,345.102 1069.38,347.269 1071.5,349C 1070.03,349.635 1068.7,350.469 1067.5,351.5C 1057.82,347.551 1047.82,344.718 1037.5,343C 1031.31,342.273 1025.14,342.439 1019,343.5C 1010.99,342.566 1002.99,341.566 995,340.5C 990.492,341.051 985.992,341.218 981.5,341C 985.387,337.34 986.887,332.84 986,327.5C 983.443,331.945 981.443,336.611 980,341.5C 979.13,340.892 978.63,340.059 978.5,339C 981.6,324.614 980.6,324.114 975.5,337.5C 971.698,332.325 971.531,326.992 975,321.5C 975.182,324.226 975.682,326.893 976.5,329.5C 978.175,323.138 980.008,316.804 982,310.5C 982.671,309.748 983.504,309.414 984.5,309.5 Z M 1169.5,306.5 C 1166.22,306.269 1163.72,307.603 1162,310.5C 1160.49,308.826 1158.66,307.826 1156.5,307.5C 1158.85,306.048 1161.51,305.382 1164.5,305.5C 1166.37,305.507 1168.04,305.84 1169.5,306.5 Z M 1169.5,306.5 C 1182.97,312.449 1187.47,322.449 1183,336.5C 1180.55,339.821 1177.38,342.321 1173.5,344C 1164.46,348.26 1155.29,349.427 1146,347.5C 1144.19,341.199 1144.19,334.865 1146,328.5C 1146.58,331.668 1147.58,332.001 1149,329.5C 1149.27,334.589 1151.77,337.589 1156.5,338.5C 1153.71,327.417 1157.38,319.417 1167.5,314.5C 1169.38,314.876 1170.88,315.876 1172,317.5C 1173.17,324.323 1171.67,330.49 1167.5,336C 1167.83,336.5 1168.17,337 1168.5,337.5C 1174.87,331.762 1176.87,324.762 1174.5,316.5C 1175.03,315.808 1175.69,315.308 1176.5,315C 1174.29,311.793 1171.29,309.793 1167.5,309C 1168.38,308.292 1169.05,307.458 1169.5,306.5 Z M 911.5,307.5 C 911.174,310.001 909.841,311.168 907.5,311C 908.705,309.624 910.038,308.458 911.5,307.5 Z M 1023.5,307.5 C 1020.95,309.556 1019.45,312.222 1019,315.5C 1018.01,316.171 1016.85,316.171 1015.5,315.5C 1017.19,311.812 1019.86,309.145 1023.5,307.5 Z M 986.5,309.5 C 986.56,308.957 986.893,308.624 987.5,308.5C 988.614,309.723 988.781,311.056 988,312.5C 987.768,311.263 987.268,310.263 986.5,309.5 Z M 905.5,320.5 C 895.957,334.223 885.79,347.556 875,360.5C 874.935,355.28 876.602,350.613 880,346.5C 888.005,337.328 896.505,328.662 905.5,320.5 Z M 970.5,336.5 C 971.837,337.315 972.837,338.482 973.5,340C 971.522,339.967 970.522,338.8 970.5,336.5 Z M 1063.5,353.5 C 1063.56,352.957 1063.89,352.624 1064.5,352.5C 1067.66,353.913 1070.66,355.58 1073.5,357.5C 1072.28,358.614 1070.94,358.781 1069.5,358C 1067.34,356.668 1065.34,355.168 1063.5,353.5 Z"/></g>
<g><path style="opacity:1" fill="#e6e7e6" d="M 1113.5,25.5 C 1126.06,22.4742 1130.56,27.4742 1127,40.5C 1124.12,37.7601 1120.78,35.7601 1117,34.5C 1116.14,31.2695 1114.97,28.2695 1113.5,25.5 Z"/></g>
<g><path style="opacity:1" fill="#e6e7e6" d="M 1127.5,115.5 C 1128.5,115.5 1129.5,115.5 1130.5,115.5C 1130.48,117.927 1129.98,120.26 1129,122.5C 1126.65,124.683 1124.48,127.016 1122.5,129.5C 1121.39,128.277 1121.22,126.944 1122,125.5C 1124.62,122.594 1126.45,119.261 1127.5,115.5 Z"/></g>
<g><path style="opacity:1" fill="#e6e7e6" d="M 1053.5,121.5 C 1054.55,121.351 1055.55,121.517 1056.5,122C 1051.78,126.721 1047.11,131.387 1042.5,136C 1040.79,137.751 1038.79,138.418 1036.5,138C 1042.71,132.926 1048.38,127.426 1053.5,121.5 Z"/></g>
<g><path style="opacity:1" fill="#e6e7e6" d="M 1037.5,124.5 C 1038.24,124.369 1038.91,124.536 1039.5,125C 1038,126.5 1036.5,128 1035,129.5C 1034.29,127.045 1035.13,125.378 1037.5,124.5 Z"/></g>
<g><path style="opacity:1" fill="#e6e7e6" d="M 1121.5,136.5 C 1124.05,138.29 1123.71,139.956 1120.5,141.5C 1119.8,139.808 1120.13,138.142 1121.5,136.5 Z"/></g>
<g><path style="opacity:1" fill="#e6e7e6" d="M 793.5,170.5 C 802.653,168.066 808.986,171.066 812.5,179.5C 811.5,179.833 810.5,180.167 809.5,180.5C 807.012,179.745 805.012,178.245 803.5,176C 800.438,175.259 797.438,175.425 794.5,176.5C 791.9,179.041 791.9,181.541 794.5,184C 800.706,185.083 806.206,187.583 811,191.5C 813.7,197.267 812.533,202.1 807.5,206C 800.466,208.636 793.966,207.803 788,203.5C 786.589,201.35 785.755,199.016 785.5,196.5C 789.455,195.863 792.122,197.363 793.5,201C 799.453,203.872 804.12,202.539 807.5,197C 806.743,195.488 805.743,194.154 804.5,193C 798.294,191.917 792.794,189.417 788,185.5C 785.58,178.924 787.414,173.924 793.5,170.5 Z"/></g>
<g><path style="opacity:1" fill="#e6e7e6" d="M 1178.5,170.5 C 1193.7,171.558 1197.2,178.558 1189,191.5C 1185.5,195 1182,198.5 1178.5,202C 1183.49,202.499 1188.49,202.666 1193.5,202.5C 1193.5,204.167 1193.5,205.833 1193.5,207.5C 1185.83,207.5 1178.17,207.5 1170.5,207.5C 1170.34,205.801 1170.51,204.134 1171,202.5C 1176,197.167 1181,191.833 1186,186.5C 1189.63,179.61 1187.46,176.11 1179.5,176C 1177.59,177.413 1176.25,179.247 1175.5,181.5C 1173.95,182.452 1172.29,182.785 1170.5,182.5C 1170.43,176.589 1173.09,172.589 1178.5,170.5 Z"/></g>
<g><path style="opacity:1" fill="#e6e7e6" d="M 1217.5,170.5 C 1226.08,168.87 1231.58,172.204 1234,180.5C 1235.13,188.045 1234.46,195.379 1232,202.5C 1225.33,209.167 1218.67,209.167 1212,202.5C 1208.67,193.5 1208.67,184.5 1212,175.5C 1213.73,173.598 1215.56,171.931 1217.5,170.5 Z M 1219.5,175.5 C 1225.24,175.073 1228.41,177.74 1229,183.5C 1230.65,190.523 1229.15,196.689 1224.5,202C 1219.1,202.618 1215.93,200.118 1215,194.5C 1214.25,189.428 1214.58,184.428 1216,179.5C 1217.03,177.973 1218.2,176.64 1219.5,175.5 Z"/></g>
<g><path style="opacity:1" fill="#e6e7e6" d="M 1258.5,170.5 C 1271.64,170.455 1275.81,176.455 1271,188.5C 1267.2,193.301 1263.03,197.801 1258.5,202C 1263.49,202.499 1268.49,202.666 1273.5,202.5C 1273.5,204.167 1273.5,205.833 1273.5,207.5C 1265.83,207.5 1258.17,207.5 1250.5,207.5C 1250.34,205.801 1250.51,204.134 1251,202.5C 1256.33,196.5 1261.67,190.5 1267,184.5C 1268.68,179.345 1266.84,176.345 1261.5,175.5C 1258.04,176.625 1256.04,178.959 1255.5,182.5C 1253.83,182.5 1252.17,182.5 1250.5,182.5C 1250.43,176.589 1253.09,172.589 1258.5,170.5 Z"/></g>
<g><path style="opacity:1" fill="#e6e7e6" d="M 1291.5,170.5 C 1298.17,170.5 1304.83,170.5 1311.5,170.5C 1311.5,172.167 1311.5,173.833 1311.5,175.5C 1306.5,175.5 1301.5,175.5 1296.5,175.5C 1295.87,178.493 1295.7,181.493 1296,184.5C 1301.6,181.979 1306.6,182.979 1311,187.5C 1315.56,201.256 1310.72,207.756 1296.5,207C 1291.68,205.68 1289.35,202.514 1289.5,197.5C 1292.61,197.174 1294.94,198.341 1296.5,201C 1302.49,203.852 1306.15,202.019 1307.5,195.5C 1307.33,190.995 1305,188.328 1300.5,187.5C 1297.01,189.094 1293.34,189.761 1289.5,189.5C 1290.25,183.176 1290.92,176.843 1291.5,170.5 Z"/></g>
<g><path style="opacity:1" fill="#e6e7e6" d="M 748.5,171.5 C 755.833,171.5 763.167,171.5 770.5,171.5C 770.5,173.167 770.5,174.833 770.5,176.5C 764.833,176.5 759.167,176.5 753.5,176.5C 753.5,179.833 753.5,183.167 753.5,186.5C 758.833,186.5 764.167,186.5 769.5,186.5C 769.5,188.167 769.5,189.833 769.5,191.5C 764.167,191.5 758.833,191.5 753.5,191.5C 753.5,195.167 753.5,198.833 753.5,202.5C 759.5,202.5 765.5,202.5 771.5,202.5C 771.5,204.167 771.5,205.833 771.5,207.5C 763.833,207.5 756.167,207.5 748.5,207.5C 748.5,195.5 748.5,183.5 748.5,171.5 Z"/></g>
<g><path style="opacity:1" fill="#e6e7e6" d="M 826.5,171.5 C 835.5,171.5 844.5,171.5 853.5,171.5C 853.5,173.167 853.5,174.833 853.5,176.5C 849.833,176.5 846.167,176.5 842.5,176.5C 842.5,186.833 842.5,197.167 842.5,207.5C 840.833,207.5 839.167,207.5 837.5,207.5C 837.5,197.167 837.5,186.833 837.5,176.5C 833.833,176.5 830.167,176.5 826.5,176.5C 826.5,174.833 826.5,173.167 826.5,171.5 Z"/></g>
<g><path style="opacity:1" fill="#e6e7e6" d="M 869.5,171.5 C 891.061,167.567 900.228,176.234 897,197.5C 895.073,202.428 891.573,205.594 886.5,207C 880.843,207.499 875.176,207.666 869.5,207.5C 869.5,195.5 869.5,183.5 869.5,171.5 Z M 874.5,176.5 C 888.3,174.799 894.133,180.799 892,194.5C 891.117,197.102 889.617,199.269 887.5,201C 883.27,202.29 878.936,202.79 874.5,202.5C 874.5,193.833 874.5,185.167 874.5,176.5 Z"/></g>
<g><path style="opacity:1" fill="#9b6a2a" d="M 689.5,284.5 C 690.623,278.689 688.79,273.689 684,269.5C 681.694,264.308 681.028,258.974 682,253.5C 680.337,257.784 680.004,262.117 681,266.5C 679.622,261.556 679.122,256.556 679.5,251.5C 676.253,254.375 674.42,258.041 674,262.5C 673.309,251.359 678.475,246.026 689.5,246.5C 684.853,252.593 683.686,259.26 686,266.5C 688.435,269.934 690.435,273.6 692,277.5C 693.038,287.885 688.871,290.385 679.5,285C 676.12,279.953 671.786,275.953 666.5,273C 661.502,271.602 656.502,271.102 651.5,271.5C 655.16,263.837 661.16,260.671 669.5,262C 670.956,262.423 671.456,263.256 671,264.5C 664.828,262.341 659.661,263.841 655.5,269C 660.519,269.058 665.352,269.892 670,271.5C 670.414,271.043 670.914,270.709 671.5,270.5C 676.36,273.193 680.027,277.026 682.5,282C 684.927,282.902 687.26,283.736 689.5,284.5 Z M 689.5,284.5 C 687.97,286.847 685.97,287.014 683.5,285C 685.473,284.505 687.473,284.338 689.5,284.5 Z"/></g>
<g><path style="opacity:1" fill="#9b6a2a" d="M 1371.5,284.5 C 1373.39,283.678 1375.39,282.845 1377.5,282C 1380.52,277.982 1383.85,274.316 1387.5,271C 1393.25,270.109 1399.25,269.442 1405.5,269C 1401.34,263.841 1396.17,262.341 1390,264.5C 1389.54,263.256 1390.04,262.423 1391.5,262C 1400.13,260.818 1406.47,264.151 1410.5,272C 1403.51,270.666 1396.84,271.666 1390.5,275C 1387.54,278.966 1384.2,282.633 1380.5,286C 1370.43,289.262 1366.93,285.762 1370,275.5C 1378.01,266.062 1378.51,256.229 1371.5,246C 1382.56,246.059 1387.73,251.559 1387,262.5C 1386.65,257.466 1384.48,253.466 1380.5,250.5C 1380.17,250.833 1379.83,251.167 1379.5,251.5C 1381.31,255.336 1381.81,259.336 1381,263.5C 1377.68,268.788 1374.35,274.121 1371,279.5C 1370.22,281.387 1370.39,283.054 1371.5,284.5 Z M 1371.5,284.5 C 1373.5,284.5 1375.5,284.5 1377.5,284.5C 1375.41,286.994 1373.41,286.994 1371.5,284.5 Z"/></g>
<g><path style="opacity:1" fill="#e6e7e6" d="M 976.5,257.5 C 977.167,257.5 977.5,257.167 977.5,256.5C 981.71,253.605 982.377,254.272 979.5,258.5C 977.775,260.092 976.775,259.758 976.5,257.5 Z"/></g>
<g><path style="opacity:1" fill="#9b6a2a" d="M 807.5,263.5 C 816.693,264.88 820.86,270.213 820,279.5C 811.564,277.559 807.398,272.225 807.5,263.5 Z M 811.5,269.5 C 811.56,268.957 811.893,268.624 812.5,268.5C 815.625,270.458 817.459,273.124 818,276.5C 814.92,274.923 812.753,272.59 811.5,269.5 Z"/></g>
<g><path style="opacity:1" fill="#9b6a2a" d="M 1250.5,263.5 C 1251.5,263.5 1252.5,263.5 1253.5,263.5C 1253.63,272.202 1249.46,277.536 1241,279.5C 1240.34,271.822 1243.5,266.488 1250.5,263.5 Z M 1247.5,268.5 C 1248.38,268.369 1249.04,268.702 1249.5,269.5C 1248.16,273.022 1245.82,275.189 1242.5,276C 1244.3,273.557 1245.97,271.057 1247.5,268.5 Z"/></g>
<g><path style="opacity:1" fill="#9b6a2a" d="M 663.5,265.5 C 670.555,264.111 676.388,266.111 681,271.5C 681.667,272.5 681.667,273.5 681,274.5C 676.148,268.483 669.981,265.983 662.5,267C 663.056,266.617 663.389,266.117 663.5,265.5 Z"/></g>
<g><path style="opacity:1" fill="#9b6a2a" d="M 1387.5,265.5 C 1390.9,265.18 1394.23,265.513 1397.5,266.5C 1390.15,265.854 1384.15,268.521 1379.5,274.5C 1378.48,273.998 1378.31,273.332 1379,272.5C 1381.46,269.519 1384.3,267.186 1387.5,265.5 Z"/></g>
<g><path style="opacity:1" fill="#9b6a2a" d="M 693.5,270.5 C 710.103,286.192 729.77,291.692 752.5,287C 763.789,283.792 775.122,280.792 786.5,278C 798.41,276.157 809.744,277.823 820.5,283C 824,285.167 826.833,288 829,291.5C 830.301,293.402 830.968,295.402 831,297.5C 824.648,291.158 816.982,287.491 808,286.5C 804.637,287.988 801.137,289.322 797.5,290.5C 793.579,289.873 790.245,288.206 787.5,285.5C 779.17,285.665 772.504,288.998 767.5,295.5C 777.498,299.499 783.164,306.832 784.5,317.5C 794.682,316.752 804.348,318.585 813.5,323C 815.26,323.965 815.594,325.132 814.5,326.5C 798.052,320.477 785.885,325.143 778,340.5C 771.527,346.984 763.693,349.984 754.5,349.5C 742.117,349.971 731.451,345.971 722.5,337.5C 721.5,337.833 720.833,338.5 720.5,339.5C 722.87,341.688 723.537,344.188 722.5,347C 717.672,347.629 713.005,346.962 708.5,345C 702.842,341.185 703.176,338.518 709.5,337C 713.135,333.154 712.802,329.487 708.5,326C 703.564,324.391 698.564,323.058 693.5,322C 687.563,315.705 680.897,310.372 673.5,306C 672.056,305.219 670.723,305.386 669.5,306.5C 672.844,311.054 671.844,313.221 666.5,313C 664.521,308.727 662.355,304.56 660,300.5C 652.902,293.959 645.736,293.959 638.5,300.5C 634.501,307.247 634.835,313.914 639.5,320.5C 621.711,318.152 614.211,307.819 617,289.5C 620.131,280.175 626.631,275.008 636.5,274C 648.707,273.552 660.041,276.552 670.5,283C 682.279,290.574 692.946,299.574 702.5,310C 712.66,319.16 723.66,327.16 735.5,334C 744.292,339.397 753.625,340.731 763.5,338C 777.984,323.412 775.984,311.412 757.5,302C 753.979,300.326 750.313,299.16 746.5,298.5C 748.741,312.421 743.074,317.254 729.5,313C 725.705,308.063 724.538,302.563 726,296.5C 719.235,298.551 713.068,297.384 707.5,293C 701.434,286.367 696.767,278.867 693.5,270.5 Z M 689.5,284.5 C 687.473,284.338 685.473,284.505 683.5,285C 685.97,287.014 687.97,286.847 689.5,284.5 Z"/></g>
<g><path style="opacity:1" fill="#9b6a2a" d="M 1366.5,270.5 C 1364.49,279.474 1359.82,287.308 1352.5,294C 1350.73,295.439 1348.73,296.439 1346.5,297C 1342.33,297.325 1338.33,297.491 1334.5,297.5C 1337.26,312.079 1331.59,317.079 1317.5,312.5C 1316.42,311.335 1315.58,310.002 1315,308.5C 1314.5,305.183 1314.33,301.85 1314.5,298.5C 1304.47,300.591 1296.31,305.591 1290,313.5C 1286.47,324.931 1289.97,333.431 1300.5,339C 1311.01,340.289 1320.68,337.955 1329.5,332C 1346.33,320.508 1362,307.508 1376.5,293C 1385.59,285.787 1395.59,280.12 1406.5,276C 1416.82,272.208 1426.82,272.874 1436.5,278C 1448.71,290.98 1448.38,303.646 1435.5,316C 1431.48,318.226 1427.32,320.059 1423,321.5C 1423.94,317.01 1425.1,312.51 1426.5,308C 1423.62,298.718 1417.29,294.718 1407.5,296C 1401.2,299.735 1397.2,305.235 1395.5,312.5C 1389.1,313.207 1388.1,311.04 1392.5,306C 1387.45,305.686 1383.12,307.352 1379.5,311C 1376.17,314.333 1372.83,317.667 1369.5,321C 1363.4,322.637 1357.4,324.637 1351.5,327C 1349.65,329.579 1349.15,332.412 1350,335.5C 1351.79,337.229 1353.96,337.896 1356.5,337.5C 1356.74,339.467 1356.41,341.301 1355.5,343C 1350.5,346.795 1345,347.961 1339,346.5C 1338.46,343.83 1338.96,341.33 1340.5,339C 1340.17,338.5 1339.83,338 1339.5,337.5C 1323.99,350.197 1306.99,352.697 1288.5,345C 1283.85,341.358 1280.35,336.858 1278,331.5C 1272.87,326.511 1266.7,324.178 1259.5,324.5C 1255.03,324.382 1250.7,325.049 1246.5,326.5C 1246.17,326.167 1245.83,325.833 1245.5,325.5C 1248.73,322.05 1252.73,319.883 1257.5,319C 1263.83,318.141 1270.16,317.308 1276.5,316.5C 1278.63,306.547 1284.3,299.547 1293.5,295.5C 1292.87,293.742 1291.87,292.242 1290.5,291C 1285.58,288.081 1280.25,286.248 1274.5,285.5C 1272.44,286.048 1270.78,287.214 1269.5,289C 1267.64,289.422 1265.81,289.922 1264,290.5C 1260.1,289.551 1256.44,288.218 1253,286.5C 1244.29,288.02 1236.63,291.687 1230,297.5C 1234.18,286.346 1242.35,279.846 1254.5,278C 1261.17,277.333 1267.83,277.333 1274.5,278C 1286.27,280.59 1297.94,283.59 1309.5,287C 1325.23,290.322 1340.23,288.322 1354.5,281C 1359.13,278.189 1363.13,274.689 1366.5,270.5 Z M 1371.5,284.5 C 1373.5,284.5 1375.5,284.5 1377.5,284.5C 1375.41,286.994 1373.41,286.994 1371.5,284.5 Z"/></g>
<g><path style="opacity:1" fill="#e6e7e6" d="M 1043.5,309.5 C 1044.5,309.5 1045.5,309.5 1046.5,309.5C 1045.3,313.578 1043.8,317.578 1042,321.5C 1041.58,325.921 1040.75,330.254 1039.5,334.5C 1037.65,331.385 1037.15,328.052 1038,324.5C 1039.55,319.356 1041.38,314.356 1043.5,309.5 Z"/></g>
<g><path style="opacity:1" fill="#e6e7e6" d="M 1106.5,329.5 C 1105.68,332.305 1105.18,335.305 1105,338.5C 1103.19,331.793 1103.52,325.126 1106,318.5C 1106.58,316.998 1107.42,315.665 1108.5,314.5C 1108.83,314.667 1109.17,314.833 1109.5,315C 1107.63,319.635 1106.63,324.468 1106.5,329.5 Z"/></g>
<g><path style="opacity:1" fill="#e6e7e6" d="M 1054.5,315.5 C 1055.65,315.791 1056.32,316.624 1056.5,318C 1055.08,322.417 1053.92,326.917 1053,331.5C 1052.52,326.082 1053.02,320.749 1054.5,315.5 Z"/></g>
<g><path style="opacity:1" fill="#e6e7e6" d="M 1063.5,315.5 C 1064.68,320.156 1064.18,324.822 1062,329.5C 1061.35,324.707 1061.85,320.04 1063.5,315.5 Z"/></g>
<g><path style="opacity:1" fill="#e6e7e6" d="M 1103.5,316.5 C 1104.1,316.735 1104.43,317.235 1104.5,318C 1101.63,325.639 1099.47,333.473 1098,341.5C 1096.18,332.425 1098.02,324.091 1103.5,316.5 Z"/></g>
<g><path style="opacity:1" fill="#e6e7e6" d="M 1045.5,318.5 C 1047.25,318.418 1048.25,319.251 1048.5,321C 1045.12,327.429 1045.12,333.762 1048.5,340C 1048.17,340.5 1047.83,341 1047.5,341.5C 1041.62,334.38 1040.95,326.714 1045.5,318.5 Z"/></g>
<g><path style="opacity:1" fill="#e6e7e6" d="M 1106.5,329.5 C 1107.7,326.766 1109.2,324.099 1111,321.5C 1111.2,323.207 1111.2,324.874 1111,326.5C 1111.67,325.833 1112.33,325.167 1113,324.5C 1112.37,329.101 1111.7,333.767 1111,338.5C 1109.84,336.715 1109.17,334.715 1109,332.5C 1108.71,334.044 1108.04,335.377 1107,336.5C 1106.5,334.19 1106.34,331.857 1106.5,329.5 Z"/></g>
<g><path style="opacity:1" fill="#e6e7e6" d="M 1162.5,321.5 C 1163.73,322.152 1164.39,323.319 1164.5,325C 1164.17,326.167 1163.83,327.333 1163.5,328.5C 1162.53,326.257 1162.19,323.924 1162.5,321.5 Z"/></g>
<g><path style="opacity:1" fill="#e6e7e6" d="M 1163.5,329.5 C 1166.06,331.404 1165.89,333.404 1163,335.5C 1162.32,333.402 1162.49,331.402 1163.5,329.5 Z"/></g>
<g><path style="opacity:1" fill="#e6e7e6" d="M 1115.5,331.5 C 1116.24,331.369 1116.91,331.536 1117.5,332C 1116.42,335.911 1114.59,339.411 1112,342.5C 1112.05,338.529 1113.21,334.862 1115.5,331.5 Z"/></g>
<g><path style="opacity:1" fill="#e6e7e6" d="M -0.5,442.5 C 26.0434,449.375 53.0434,452.375 80.5,451.5C 112.497,451.803 144.164,448.803 175.5,442.5C 176.666,463.826 176.833,485.159 176,506.5C 168.336,501.054 159.836,497.554 150.5,496C 119.45,491.823 88.9498,494.323 59,503.5C 58.5,528.498 58.3334,553.498 58.5,578.5C 82.5139,578.666 106.514,578.166 130.5,577C 136.808,575.096 142.641,572.262 148,568.5C 148.833,590.508 148.666,612.508 147.5,634.5C 141.765,629.467 135.098,626.3 127.5,625C 107.5,624.333 87.5,624.333 67.5,625C 64.4465,625.179 61.4465,625.679 58.5,626.5C 57.0012,635.41 56.3345,644.41 56.5,653.5C 58.0364,699.732 62.0364,745.732 68.5,791.5C 45.6466,797.137 22.6466,802.137 -0.5,806.5C -0.5,804.167 -0.5,801.833 -0.5,799.5C 2.2043,779.73 4.03764,759.73 5,739.5C 8.8875,643.906 7.05417,548.573 -0.5,453.5C -0.5,449.833 -0.5,446.167 -0.5,442.5 Z"/></g>
<g><path style="opacity:1" fill="#e6e7e6" d="M 198.5,442.5 C 221.167,442.5 243.833,442.5 266.5,442.5C 259.174,524.718 257.341,607.052 261,689.5C 262.306,709.224 264.139,728.89 266.5,748.5C 243.784,752.577 221.117,756.91 198.5,761.5C 209.049,655.175 209.049,548.842 198.5,442.5 Z"/></g>
<g><path style="opacity:1" fill="#e6e7e6" d="M 291.5,442.5 C 314.408,442.173 337.242,442.506 360,443.5C 368.755,494.432 385.088,542.765 409,588.5C 413.576,596.904 418.742,604.904 424.5,612.5C 430.466,555.291 427.133,498.624 414.5,442.5C 437.502,442.333 460.502,442.5 483.5,443C 469.621,520.816 467.455,598.983 477,677.5C 478.473,688.511 480.64,699.345 483.5,710C 462.023,714.306 440.523,717.472 419,719.5C 413.837,704.172 407.837,689.172 401,674.5C 383.782,638.398 365.782,602.731 347,567.5C 345.847,613.721 348.514,659.721 355,705.5C 356.205,713.651 358.038,721.651 360.5,729.5C 337.623,734.475 314.623,738.809 291.5,742.5C 300.267,699.47 304.6,655.97 304.5,612C 303.607,555.227 299.274,498.727 291.5,442.5 Z"/></g>
<g><path style="opacity:1" fill="#e6e7e6" d="M 569.5,442.5 C 592.527,446.27 615.527,446.27 638.5,442.5C 645.821,501.601 659.321,559.268 679,615.5C 687.475,638.615 696.641,661.449 706.5,684C 706.095,684.945 705.428,685.612 704.5,686C 680.18,688.378 655.846,690.544 631.5,692.5C 635.186,674.558 635.353,656.558 632,638.5C 629.028,621.917 625.028,605.584 620,589.5C 617.52,587.834 614.687,587.001 611.5,587C 603.876,586.247 596.376,586.747 589,588.5C 580.007,614.804 574.341,641.804 572,669.5C 571.223,679.571 571.723,689.571 573.5,699.5C 547.392,701.563 521.392,704.563 495.5,708.5C 513.148,661.058 529.314,613.058 544,564.5C 554.62,524.232 563.12,483.565 569.5,442.5 Z M 594.5,493.5 C 601.167,493.5 607.833,493.5 614.5,493.5C 616.702,511.578 619.368,529.578 622.5,547.5C 611.355,550.83 600.021,551.33 588.5,549C 587.692,548.692 587.025,548.192 586.5,547.5C 589.445,529.55 592.112,511.55 594.5,493.5 Z"/></g>
<g><path style="opacity:1" fill="#e6e7e6" d="M 774.5,442.5 C 824.496,449.135 874.496,449.135 924.5,442.5C 924.833,459.513 924.499,476.513 923.5,493.5C 898.461,487.503 873.127,486.003 847.5,489C 839.821,490.169 832.155,491.335 824.5,492.5C 824.5,508.5 824.5,524.5 824.5,540.5C 837.837,540.667 851.171,540.5 864.5,540C 872.304,539.288 879.471,536.788 886,532.5C 886.667,549.5 886.667,566.5 886,583.5C 880.581,579.209 874.415,576.709 867.5,576C 853.171,575.5 838.837,575.333 824.5,575.5C 824.176,591.078 824.509,606.578 825.5,622C 858.554,629.444 891.554,629.277 924.5,621.5C 924.5,638.5 924.5,655.5 924.5,672.5C 874.221,670.069 824.221,672.735 774.5,680.5C 786.436,601.177 786.436,521.843 774.5,442.5 Z"/></g>
<g><path style="opacity:1" fill="#e6e7e6" d="M 1121.5,442.5 C 1185.18,451.77 1248.85,451.77 1312.5,442.5C 1312.5,460.833 1312.5,479.167 1312.5,497.5C 1295.85,492.571 1278.85,489.571 1261.5,488.5C 1252.73,488.209 1244.56,490.209 1237,494.5C 1236.33,543.167 1236.33,591.833 1237,640.5C 1236.94,656.205 1243.1,668.705 1255.5,678C 1230.17,677.303 1204.84,676.303 1179.5,675C 1178.83,674.667 1178.17,674.333 1177.5,674C 1188.44,665.97 1194.6,655.136 1196,641.5C 1196.67,592.5 1196.67,543.5 1196,494.5C 1188.48,490.212 1180.31,488.212 1171.5,488.5C 1154.76,489.315 1138.43,492.315 1122.5,497.5C 1121.5,479.179 1121.17,460.845 1121.5,442.5 Z"/></g>
<g><path style="opacity:1" fill="#e6e7e6" d="M 1332.5,442.5 C 1355.99,445.901 1379.32,446.234 1402.5,443.5C 1414.29,530.484 1436.62,614.651 1469.5,696C 1444.09,694.492 1418.76,691.992 1393.5,688.5C 1395.94,679.519 1396.94,670.352 1396.5,661C 1396.69,650.417 1395.86,639.917 1394,629.5C 1390.8,615.707 1387.14,602.041 1383,588.5C 1372.46,585.614 1362.12,585.948 1352,589.5C 1346.91,604.848 1343.25,620.515 1341,636.5C 1340,652.837 1341.83,668.837 1346.5,684.5C 1321.41,683.381 1296.41,681.214 1271.5,678C 1300.04,601.66 1320.38,523.16 1332.5,442.5 Z M 1358.5,493.5 C 1365.29,492.899 1371.79,493.566 1378,495.5C 1380.31,512.362 1382.81,529.196 1385.5,546C 1385.25,547.326 1384.58,548.326 1383.5,549C 1372.77,551.16 1362.11,550.994 1351.5,548.5C 1351.17,547.5 1350.83,546.5 1350.5,545.5C 1353.08,528.105 1355.75,510.772 1358.5,493.5 Z"/></g>
<g><path style="opacity:1" fill="#e6e7e6" d="M 1481.5,442.5 C 1504.51,442.167 1527.51,442.5 1550.5,443.5C 1561.58,476.581 1572.75,509.581 1584,542.5C 1594.94,509.179 1605.77,475.846 1616.5,442.5C 1639.5,442.5 1662.5,442.5 1685.5,442.5C 1670.92,516.617 1667.09,591.283 1674,666.5C 1676.11,686.52 1679.95,706.186 1685.5,725.5C 1684.33,725.833 1683.17,726.167 1682,726.5C 1660.51,723.002 1639.01,719.669 1617.5,716.5C 1627.85,663.683 1632.35,610.35 1631,556.5C 1616.75,580.001 1602.25,603.334 1587.5,626.5C 1569.86,603.225 1552.69,579.558 1536,555.5C 1535.36,598.469 1538.69,641.135 1546,683.5C 1547.29,691.165 1549.12,698.665 1551.5,706C 1528.07,704.155 1504.74,701.322 1481.5,697.5C 1492.45,658.096 1497.45,617.929 1496.5,577C 1496.8,531.552 1491.8,486.719 1481.5,442.5 Z"/></g>
<g><path style="opacity:1" fill="#e6e7e6" d="M 1707.5,442.5 C 1744.21,442.032 1780.87,442.532 1817.5,444C 1847.41,452.579 1863.24,472.412 1865,503.5C 1867.11,525.313 1861.78,544.979 1849,562.5C 1836.28,575.529 1820.78,583.029 1802.5,585C 1789.17,585.5 1775.84,585.667 1762.5,585.5C 1762,622.621 1763.84,659.621 1768,696.5C 1769.36,706.3 1771.36,715.966 1774,725.5C 1776.03,731.894 1778.86,737.894 1782.5,743.5C 1781.67,743.833 1780.83,744.167 1780,744.5C 1755.91,740.082 1731.91,735.415 1708,730.5C 1713.55,676.842 1716.72,623.009 1717.5,569C 1717.67,526.539 1714.34,484.372 1707.5,442.5 Z M 1764.5,488.5 C 1779.84,488.821 1795.17,489.321 1810.5,490C 1813.94,491.105 1816.44,493.272 1818,496.5C 1821.8,506.536 1821.14,516.203 1816,525.5C 1812.96,528.103 1809.46,529.769 1805.5,530.5C 1791.87,529.85 1778.2,529.183 1764.5,528.5C 1762.02,515.193 1762.02,501.86 1764.5,488.5 Z"/></g>
<g><path style="opacity:1" fill="#e6e7e6" d="M 2062.5,808.5 C 2062.5,808.833 2062.5,809.167 2062.5,809.5C 2035.4,803.141 2008.4,796.308 1981.5,789C 1982.65,781.58 1982.81,774.08 1982,766.5C 1974.84,712.692 1963.84,659.692 1949,607.5C 1948.5,606.333 1947.67,605.5 1946.5,605C 1936.8,604.245 1927.13,604.412 1917.5,605.5C 1906.83,641.033 1900.66,677.366 1899,714.5C 1897.77,732.484 1896.94,750.484 1896.5,768.5C 1871.17,763.167 1845.83,757.833 1820.5,752.5C 1844.33,673.498 1865.83,593.831 1885,513.5C 1889.93,489.895 1894.43,466.228 1898.5,442.5C 1921.51,449.066 1944.51,449.066 1967.5,442.5C 1972.49,482.306 1979.99,521.639 1990,560.5C 2010.27,637.236 2031.93,713.569 2055,789.5C 2057.23,796.052 2059.73,802.385 2062.5,808.5 Z M 1923.5,493.5 C 1930.09,493.189 1936.59,493.522 1943,494.5C 1945.55,518.085 1948.38,541.585 1951.5,565C 1945.39,566.863 1939.06,567.696 1932.5,567.5C 1926.82,567.266 1921.15,566.933 1915.5,566.5C 1918.02,542.144 1920.69,517.811 1923.5,493.5 Z"/></g>
<g><path style="opacity:1" fill="#e6e7e6" d="M 1002.5,443.5 C 1034.52,443.879 1066.52,444.879 1098.5,446.5C 1098.67,468.169 1098.5,489.836 1098,511.5C 1090.52,499.364 1080.02,490.864 1066.5,486C 1053.01,480.368 1039.01,478.368 1024.5,480C 1005.81,488.674 1004.14,499.674 1019.5,513C 1039.68,523.256 1060.01,533.256 1080.5,543C 1106.27,559.604 1116.1,583.104 1110,613.5C 1103.96,644.88 1085.46,664.713 1054.5,673C 1027.11,679.141 999.774,678.808 972.5,672C 964.164,669.665 956.497,665.998 949.5,661C 946.865,659.039 945.031,656.539 944,653.5C 943.333,635.5 943.333,617.5 944,599.5C 949.28,610.122 956.78,618.955 966.5,626C 987.901,641.601 1011.57,646.935 1037.5,642C 1054.22,634.732 1060.38,622.232 1056,604.5C 1051.83,593.667 1044.33,586.167 1033.5,582C 1013.5,572.667 993.5,563.333 973.5,554C 945.607,536.975 937.774,513.142 950,482.5C 960.284,459.708 977.784,446.708 1002.5,443.5 Z"/></g>
<g><path style="opacity:1" fill="#e6e7e6" d="M 773.5,785.5 C 784.831,783.11 794.331,786.11 802,794.5C 803.549,797.312 804.382,800.312 804.5,803.5C 801.167,803.5 797.833,803.5 794.5,803.5C 794.451,800.901 793.451,798.734 791.5,797C 784.5,792.333 777.5,792.333 770.5,797C 766.221,802.033 766.554,806.7 771.5,811C 780.675,813.877 789.675,817.21 798.5,821C 807.445,829.977 807.779,839.31 799.5,849C 787.683,855.943 775.683,856.277 763.5,850C 758.605,846.377 756.272,841.544 756.5,835.5C 759.518,835.335 762.518,835.502 765.5,836C 768.107,842.755 773.107,846.255 780.5,846.5C 786.763,846.288 791.597,843.621 795,838.5C 795.893,835.084 795.393,831.917 793.5,829C 784.675,825.21 775.675,821.877 766.5,819C 755.457,810.098 754.79,800.431 764.5,790C 767.592,788.454 770.592,786.954 773.5,785.5 Z"/></g>
<g><path style="opacity:1" fill="#e6e7e6" d="M 1093.5,785.5 C 1118.03,783.857 1130.69,795.357 1131.5,820C 1131.21,843.297 1119.54,854.63 1096.5,854C 1084.23,851.729 1076.39,844.563 1073,832.5C 1070.61,821.965 1071.28,811.631 1075,801.5C 1079.22,793.774 1085.38,788.441 1093.5,785.5 Z M 1095.5,794.5 C 1111.24,792.739 1120.08,799.739 1122,815.5C 1124.12,829.769 1118.62,839.603 1105.5,845C 1093.48,846.238 1085.65,841.071 1082,829.5C 1079.44,819.62 1080.78,810.286 1086,801.5C 1088.79,798.535 1091.96,796.202 1095.5,794.5 Z"/></g>
<g><path style="opacity:1" fill="#e6e7e6" d="M 444.5,786.5 C 455.172,786.333 465.839,786.5 476.5,787C 483.667,788.833 488.167,793.333 490,800.5C 491.948,809.015 490.114,816.515 484.5,823C 482.725,824.439 480.725,825.439 478.5,826C 483.373,834.914 488.373,843.748 493.5,852.5C 489.878,853.659 486.211,853.825 482.5,853C 477.833,844.667 473.167,836.333 468.5,828C 463.511,827.501 458.511,827.334 453.5,827.5C 453.5,836.167 453.5,844.833 453.5,853.5C 450.5,853.5 447.5,853.5 444.5,853.5C 444.5,831.167 444.5,808.833 444.5,786.5 Z M 453.5,794.5 C 460.589,794.116 467.589,794.616 474.5,796C 481.533,800.773 483.033,806.94 479,814.5C 477.786,816.049 476.286,817.215 474.5,818C 467.574,819.339 460.574,819.839 453.5,819.5C 453.5,811.167 453.5,802.833 453.5,794.5 Z"/></g>
<g><path style="opacity:1" fill="#e6e7e6" d="M 603.5,786.5 C 617.5,786.5 631.5,786.5 645.5,786.5C 645.5,789.167 645.5,791.833 645.5,794.5C 634.5,794.5 623.5,794.5 612.5,794.5C 612.5,801.5 612.5,808.5 612.5,815.5C 622.5,815.5 632.5,815.5 642.5,815.5C 642.5,818.167 642.5,820.833 642.5,823.5C 632.5,823.5 622.5,823.5 612.5,823.5C 612.5,830.5 612.5,837.5 612.5,844.5C 623.5,844.5 634.5,844.5 645.5,844.5C 645.5,847.5 645.5,850.5 645.5,853.5C 631.5,853.5 617.5,853.5 603.5,853.5C 603.5,831.167 603.5,808.833 603.5,786.5 Z"/></g>
<g><path style="opacity:1" fill="#e6e7e6" d="M 913.5,786.5 C 930.5,786.5 947.5,786.5 964.5,786.5C 964.5,789.167 964.5,791.833 964.5,794.5C 957.833,794.5 951.167,794.5 944.5,794.5C 944.5,814.167 944.5,833.833 944.5,853.5C 941.167,853.5 937.833,853.5 934.5,853.5C 934.5,833.833 934.5,814.167 934.5,794.5C 927.5,794.5 920.5,794.5 913.5,794.5C 913.5,791.833 913.5,789.167 913.5,786.5 Z"/></g>
<g><path style="opacity:1" fill="#e6e7e6" d="M 1244.5,786.5 C 1255.17,786.333 1265.84,786.5 1276.5,787C 1288.79,792.18 1292.29,801.013 1287,813.5C 1285.27,815.617 1283.1,817.117 1280.5,818C 1291.42,823.831 1294.59,832.664 1290,844.5C 1287.55,847.821 1284.38,850.321 1280.5,852C 1268.56,853.415 1256.56,853.915 1244.5,853.5C 1244.5,831.167 1244.5,808.833 1244.5,786.5 Z M 1253.5,794.5 C 1260.92,794.109 1268.25,794.609 1275.5,796C 1282.47,802.804 1281.8,808.804 1273.5,814C 1266.92,815.377 1260.26,815.877 1253.5,815.5C 1253.5,808.5 1253.5,801.5 1253.5,794.5 Z M 1253.5,823.5 C 1261.25,823.104 1268.92,823.604 1276.5,825C 1282.39,828.892 1283.89,834.058 1281,840.5C 1279.68,842.487 1277.85,843.654 1275.5,844C 1268.17,844.5 1260.84,844.666 1253.5,844.5C 1253.5,837.5 1253.5,830.5 1253.5,823.5 Z"/></g>
<g><path style="opacity:1" fill="#e6e7e6" d="M 1422.5,786.5 C 1426.5,786.5 1430.5,786.5 1434.5,786.5C 1441.92,808.685 1449.92,830.685 1458.5,852.5C 1454.96,853.791 1451.46,853.791 1448,852.5C 1445.83,846.65 1443.66,840.817 1441.5,835C 1432.83,834.333 1424.17,834.333 1415.5,835C 1413,841.003 1411,847.169 1409.5,853.5C 1405.82,853.665 1402.15,853.499 1398.5,853C 1406.92,830.989 1414.92,808.822 1422.5,786.5 Z M 1427.5,796.5 C 1431.32,805.945 1434.99,815.612 1438.5,825.5C 1431.83,826.833 1425.17,826.833 1418.5,825.5C 1422.11,815.996 1425.11,806.33 1427.5,796.5 Z"/></g>
<g><path style="opacity:1" fill="#e6e7e6" d="M 1568.5,786.5 C 1579.17,786.333 1589.84,786.5 1600.5,787C 1611.66,791.811 1616.16,800.311 1614,812.5C 1612.33,818.841 1608.49,823.341 1602.5,826C 1607.85,834.872 1612.52,844.039 1616.5,853.5C 1612.77,853.823 1609.11,853.489 1605.5,852.5C 1601.04,844.413 1596.71,836.246 1592.5,828C 1587.51,827.501 1582.51,827.334 1577.5,827.5C 1577.5,836.167 1577.5,844.833 1577.5,853.5C 1574.5,853.5 1571.5,853.5 1568.5,853.5C 1568.5,831.167 1568.5,808.833 1568.5,786.5 Z M 1577.5,794.5 C 1584.59,794.116 1591.59,794.616 1598.5,796C 1603.11,798.208 1605.11,801.875 1604.5,807C 1605.11,812.125 1603.11,815.792 1598.5,818C 1591.56,819.288 1584.56,819.788 1577.5,819.5C 1577.5,811.167 1577.5,802.833 1577.5,794.5 Z"/></g>
<g><path style="opacity:1" fill="#9b6a2a" d="M 1029.5,905.5 C 1031.72,906.203 1033.55,907.536 1035,909.5C 1041.67,918.167 1048.33,926.833 1055,935.5C 1064.95,953.806 1064.95,972.139 1055,990.5C 1049.37,1000.29 1041.21,1006.96 1030.5,1010.5C 1010.03,1001.49 999.701,985.659 999.5,963C 999.392,953.598 1001.56,944.764 1006,936.5C 1013.69,925.988 1021.52,915.654 1029.5,905.5 Z"/></g>
<g><path style="opacity:1" fill="#9b6a2a" d="M 961.5,942.5 C 985.791,947.473 998.124,962.473 998.5,987.5C 973.439,983.096 961.106,968.096 961.5,942.5 Z"/></g>
<g><path style="opacity:1" fill="#9b6a2a" d="M 1097.5,942.5 C 1101.36,960.956 1094.7,974.79 1077.5,984C 1072.72,986.618 1067.72,987.452 1062.5,986.5C 1063.5,969.646 1070.84,956.48 1084.5,947C 1088.85,945.164 1093.18,943.664 1097.5,942.5 Z"/></g>
<g><path style="opacity:1" fill="#9b6a2a" d="M 1051.5,1049.5 C 1047.83,1049.5 1044.17,1049.5 1040.5,1049.5C 1036.19,1047.35 1033.02,1044.02 1031,1039.5C 1028.24,1043.77 1024.74,1047.1 1020.5,1049.5C 1016.83,1049.5 1013.17,1049.5 1009.5,1049.5C 1007.81,1048.7 1006.14,1047.7 1004.5,1046.5C 1014.82,1041.72 1016.16,1035.22 1008.5,1027C 1007.17,1026.83 1005.83,1026.67 1004.5,1026.5C 1000.23,1027.8 995.898,1028.8 991.5,1029.5C 991.5,1028.17 991.5,1026.83 991.5,1025.5C 994.718,1025.35 995.051,1024.52 992.5,1023C 987.38,1021.28 982.213,1021.12 977,1022.5C 972.754,1021.1 968.588,1019.44 964.5,1017.5C 962.971,1017.53 961.804,1018.2 961,1019.5C 960.825,1022.16 960.992,1024.82 961.5,1027.5C 956.017,1027.92 951.683,1025.92 948.5,1021.5C 949.936,1020.07 951.602,1018.9 953.5,1018C 941.383,1017.53 931.883,1012.36 925,1002.5C 923.781,995.579 923.114,988.579 923,981.5C 920.108,975.608 915.608,971.441 909.5,969C 911.833,968.333 914.167,968.333 916.5,969C 921.277,971.454 925.777,974.287 930,977.5C 935.349,973.702 941.183,972.702 947.5,974.5C 948.287,973.758 948.953,972.925 949.5,972C 947.679,964.509 943.012,960.176 935.5,959C 934.383,955.972 932.716,953.305 930.5,951C 925.436,948.489 920.103,946.822 914.5,946C 928.297,942.044 939.464,945.877 948,957.5C 953.681,968.682 961.181,978.515 970.5,987C 978.928,993.105 988.262,995.771 998.5,995C 990.807,1000.34 982.473,1001.67 973.5,999C 971.951,997.786 970.785,996.286 970,994.5C 965.333,1002.55 959.999,1003.22 954,996.5C 952.798,992.207 953.965,988.707 957.5,986C 948.733,979.678 940.566,980.178 933,987.5C 929.434,996.863 932.268,1003.36 941.5,1007C 945.057,1008.41 948.724,1009.41 952.5,1010C 971.175,1010.97 989.841,1011.97 1008.5,1013C 1018.07,1014.61 1025.41,1019.44 1030.5,1027.5C 1036.21,1019.64 1043.88,1014.81 1053.5,1013C 1069.46,1011.74 1085.46,1011.08 1101.5,1011C 1110.04,1010.49 1118.04,1008.15 1125.5,1004C 1131.79,997.455 1131.79,990.788 1125.5,984C 1117.85,980.726 1110.52,981.393 1103.5,986C 1110.38,992.559 1109.38,997.725 1100.5,1001.5C 1096.62,1000.46 1093.79,998.123 1092,994.5C 1086.35,1000.73 1079.52,1002.23 1071.5,999C 1068.22,998.241 1065.22,996.908 1062.5,995C 1075.97,995.685 1087.47,991.185 1097,981.5C 1102.41,975.016 1107.08,968.016 1111,960.5C 1115.75,953.083 1122.25,947.917 1130.5,945C 1135.92,944.161 1141.25,944.494 1146.5,946C 1140.9,946.822 1135.56,948.489 1130.5,951C 1129.02,953.762 1127.35,956.429 1125.5,959C 1118.07,959.926 1113.74,964.093 1112.5,971.5C 1112.83,972.5 1113.17,973.5 1113.5,974.5C 1119.92,972.734 1125.92,973.734 1131.5,977.5C 1135.03,974.805 1138.7,972.305 1142.5,970C 1154.04,967.496 1154.37,968.829 1143.5,974C 1139.49,977.185 1137.49,981.351 1137.5,986.5C 1139.89,1000.22 1134.55,1009.72 1121.5,1015C 1116.77,1015.84 1112.11,1016.84 1107.5,1018C 1109.67,1018.81 1111.34,1020.14 1112.5,1022C 1109.27,1026.2 1105.1,1027.7 1100,1026.5C 1099.38,1024.54 1099.88,1022.87 1101.5,1021.5C 1100.41,1019.4 1098.74,1018.07 1096.5,1017.5C 1093.23,1018.47 1090.23,1019.97 1087.5,1022C 1080.33,1020.77 1073.33,1021.44 1066.5,1024C 1068.06,1024.94 1069.39,1026.11 1070.5,1027.5C 1070,1028.88 1069,1029.55 1067.5,1029.5C 1062.34,1026.5 1057,1026 1051.5,1028C 1045.11,1036.59 1047.11,1042.59 1057.5,1046C 1055.57,1047.46 1053.57,1048.63 1051.5,1049.5 Z"/></g>
</svg>
